<?xml version="1.0" encoding="UTF-8"?>
<!-- 2012-10-11 08:54:26 Generated by QCAD SVG Exporter -->
<svg width="223.665" height="282.865" viewBox="-2.2414 -292 223.665 282.865" version="1.1" xmlns="http://www.w3.org/2000/svg" style="stroke-linecap:round;stroke-linejoin:round;fill:none">
    <g transform="scale(1,-1)">
        <!-- Line -->
        <path d="M42.0022,63.6729 L25.4332,115.593 " style="stroke:#000000;stroke-width:0;"/>
        <!-- Line -->
        <path d="M49.1912,57.592 L106.351,75.8331 " style="stroke:#000000;stroke-width:0;"/>
        <!-- Line -->
        <path d="M85.0699,142.52 L27.9099,124.279 " style="stroke:#000000;stroke-width:0;"/>
        <!-- Line -->
        <path d="M109.601,82.0962 L91.3598,139.256 " style="stroke:#000000;stroke-width:0;"/>
        <!-- Line -->
        <path d="M110.376,77.4956 L189.186,102.646 " style="stroke:#000000;stroke-width:0;"/>
        <!-- Line -->
        <path d="M204.87,62.4864 L127.667,9.13523 " style="stroke:#000000;stroke-width:0;"/>
        <!-- Line -->
        <path d="M41.8772,63.7828 L14.7628,55.1299 " style="stroke:#000000;stroke-width:0;"/>
        <!-- Line -->
        <path d="M25.1776,115.52 L-2.2414,106.769 " style="stroke:#000000;stroke-width:0;"/>
        <!-- Line -->
        <path d="M14.7498,55.1707 L-1.76507,106.921 " style="stroke:#000000;stroke-width:0;"/>
        <!-- Line -->
        <path d="M202.828,67.221 L125.843,14.8512 " style="stroke:#000000;stroke-width:0;"/>
        <!-- Line -->
        <path d="M64.0207,209.037 L64.5854,280.817 " style="stroke:#000000;stroke-width:0;"/>
        <!-- Line -->
        <path d="M64.3139,280.63 L162.456,280.516 " style="stroke:#000000;stroke-width:0;"/>
        <!-- Line -->
        <path d="M162.179,210.183 L161.816,280.396 " style="stroke:#000000;stroke-width:0;"/>
        <!-- Line -->
        <path d="M203.931,280.126 L204.488,280.126 " style="stroke:#000000;stroke-width:0;"/>
        <!-- Line -->
        <path d="M68.6863,290.294 L157.418,289.218 " style="stroke:#000000;stroke-width:0;"/>
        <!-- Line -->
        <path d="M156.28,289.471 L162.227,280.747 " style="stroke:#000000;stroke-width:0;"/>
        <!-- Arc -->
        <path d="M91.3533,139.276 A5,5 0 0,1 85.0699,142.52 " style="stroke:#000000;stroke-width:0;"/>
        <!-- Arc -->
        <path d="M42.9078,60.8353 A5,5 0 0,1 49.1912,57.592 " style="stroke:#000000;stroke-width:0;"/>
        <!-- Arc -->
        <path d="M27.9099,124.279 A5,5 0 0,1 24.6667,117.995 " style="stroke:#000000;stroke-width:0;"/>
        <!-- Arc -->
        <path d="M106.351,75.8331 A5,5 0 0,1 109.594,82.1165 " style="stroke:#000000;stroke-width:0;"/>
        <!-- Line -->
        <path d="M109.629,82.1053 L187.74,107.032 " style="stroke:#000000;stroke-width:0;"/>
        <!-- Line -->
        <path d="M111.149,77.342 L128.034,9.31804 " style="stroke:#000000;stroke-width:0;"/>
        <!-- Line -->
        <path d="M187.349,107.204 L204.742,62.3982 " style="stroke:#000000;stroke-width:0;"/>
        <!-- Line -->
        <path d="M221.42,20.8564 L221.424,20.848 " style="stroke:#000000;stroke-width:0;"/>
        <!-- Line -->
        <path d="M163.952,212.848 L64.1821,213.006 " style="stroke:#000000;stroke-width:0;"/>
        <!-- Line -->
        <path d="M89.8682,144.029 L64.2216,209.279 " style="stroke:#000000;stroke-width:0;"/>
        <!-- Line -->
        <path d="M91.3883,139.265 L89.8682,144.029 " style="stroke:#000000;stroke-width:0;"/>
        <!-- Line -->
        <path d="M169.02,164.012 L157.382,210.568 " style="stroke:#000000;stroke-width:0;"/>
        <!-- Line -->
        <path d="M42.0307,63.682 L43.0947,60.3477 " style="stroke:#000000;stroke-width:0;"/>
        <!-- Line -->
        <path d="M25.4617,115.602 L24.3976,118.937 " style="stroke:#000000;stroke-width:0;"/>
        <!-- Line -->
        <path d="M109.629,82.1053 L111.149,77.342 " style="stroke:#000000;stroke-width:0;"/>
        <!-- Line -->
        <path d="M163.425,224.153 L179.424,224.125 " style="stroke:#000000;stroke-width:0;"/>
        <!-- Line -->
        <path d="M163.455,241.153 L179.455,241.124 " style="stroke:#000000;stroke-width:0;"/>
        <!-- Line -->
        <path d="M179.424,224.125 L179.455,241.124 " style="stroke:#000000;stroke-width:0;"/>
        <!-- Line -->
        <path d="M163.425,224.153 L163.455,241.153 " style="stroke:#000000;stroke-width:0;"/>
        <!-- Line -->
        <path d="M163.483,257.153 L177.483,257.128 " style="stroke:#000000;stroke-width:0;"/>
        <!-- Line -->
        <path d="M163.483,257.153 L163.501,267.153 " style="stroke:#000000;stroke-width:0;"/>
        <!-- Line -->
        <path d="M163.501,267.153 L177.5,267.128 " style="stroke:#000000;stroke-width:0;"/>
        <!-- Line -->
        <path d="M177.483,257.128 L177.5,267.128 " style="stroke:#000000;stroke-width:0;"/>
        <!-- Line -->
        <path d="M157.405,210.497 L162.515,210.774 " style="stroke:#000000;stroke-width:0;"/>
        <!-- Line -->
        <path d="M27.96,124.043 L22.9417,139.768 " style="stroke:#000000;stroke-width:0;"/>
        <!-- Line -->
        <path d="M85.145,142.259 L80.0706,158.16 " style="stroke:#000000;stroke-width:0;"/>
        <!-- Line -->
        <path d="M22.9958,139.598 L80.1589,158.189 " style="stroke:#000000;stroke-width:0;"/>
        <!-- Line -->
        <path d="M49.112,57.5675 L55.0346,39.0087 " style="stroke:#000000;stroke-width:0;"/>
        <!-- Line -->
        <path d="M106.61,75.9234 L112.534,57.3582 " style="stroke:#000000;stroke-width:0;"/>
        <!-- Line -->
        <path d="M54.8833,38.9605 L112.534,57.3582 " style="stroke:#000000;stroke-width:0;"/>
        <!-- Polyline -->
        <path d="M41.5896,86.3509 L43.7761,90.7217 M43.7761,90.7217 L45.0015,90.1087 M45.0015,90.1087 L42.815,85.7379 M42.815,85.7379 L41.5896,86.3509 " style="stroke:#000000;stroke-width:0;"/>
        <!-- Polyline -->
        <path d="M48.4323,88.7611 L50.6187,93.1319 M50.6187,93.1319 L51.8441,92.5189 M51.8441,92.5189 L49.6577,88.1481 M49.6577,88.1481 L48.4323,88.7611 " style="stroke:#000000;stroke-width:0;"/>
        <!-- Polyline -->
        <path d="M55.8797,91.3214 L58.0662,95.6922 M58.0662,95.6922 L59.2916,95.0792 M59.2916,95.0792 L57.1051,90.7084 M57.1051,90.7084 L55.8797,91.3214 " style="stroke:#000000;stroke-width:0;"/>
        <!-- Polyline -->
        <path d="M62.9902,93.4987 L65.1767,97.8695 M65.1767,97.8695 L66.4021,97.2565 M66.4021,97.2565 L64.2156,92.8857 M64.2156,92.8857 L62.9902,93.4987 " style="stroke:#000000;stroke-width:0;"/>
        <!-- Polyline -->
        <path d="M70.3809,95.9491 L72.5673,100.32 M72.5673,100.32 L73.7927,99.7069 M73.7927,99.7069 L71.6063,95.3361 M71.6063,95.3361 L70.3809,95.9491 " style="stroke:#000000;stroke-width:0;"/>
        <!-- Polyline -->
        <path d="M77.4347,98.0164 L79.6211,102.387 M79.6211,102.387 L80.8465,101.774 M80.8465,101.774 L78.6601,97.4034 M78.6601,97.4034 L77.4347,98.0164 " style="stroke:#000000;stroke-width:0;"/>
        <!-- Polyline -->
        <path d="M84.6853,100.33 L86.8717,104.701 M86.8717,104.701 L88.0971,104.088 M88.0971,104.088 L85.9107,99.7173 M85.9107,99.7173 L84.6853,100.33 " style="stroke:#000000;stroke-width:0;"/>
        <!-- Polyline -->
        <path d="M91.5191,102.511 L93.7056,106.882 M93.7056,106.882 L94.931,106.269 M94.931,106.269 L92.7445,101.898 M92.7445,101.898 L91.5191,102.511 " style="stroke:#000000;stroke-width:0;"/>
        <!-- Polyline -->
        <path d="M43.813,79.3684 L45.9994,83.7392 M45.9994,83.7392 L47.2248,83.1262 M47.2248,83.1262 L45.0384,78.7554 M45.0384,78.7554 L43.813,79.3684 " style="stroke:#000000;stroke-width:0;"/>
        <!-- Polyline -->
        <path d="M50.6557,81.7786 L52.8421,86.1494 M52.8421,86.1494 L54.0675,85.5364 M54.0675,85.5364 L51.8811,81.1656 M51.8811,81.1656 L50.6557,81.7786 " style="stroke:#000000;stroke-width:0;"/>
        <!-- Polyline -->
        <path d="M58.1031,84.3389 L60.2895,88.7097 M60.2895,88.7097 L61.5149,88.0967 M61.5149,88.0967 L59.3285,83.7259 M59.3285,83.7259 L58.1031,84.3389 " style="stroke:#000000;stroke-width:0;"/>
        <!-- Polyline -->
        <path d="M65.2136,86.5162 L67.4,90.887 M67.4,90.887 L68.6254,90.274 M68.6254,90.274 L66.439,85.9032 M66.439,85.9032 L65.2136,86.5162 " style="stroke:#000000;stroke-width:0;"/>
        <!-- Polyline -->
        <path d="M72.6043,88.9665 L74.7907,93.3374 M74.7907,93.3374 L76.0161,92.7244 M76.0161,92.7244 L73.8297,88.3535 M73.8297,88.3535 L72.6043,88.9665 " style="stroke:#000000;stroke-width:0;"/>
        <!-- Polyline -->
        <path d="M79.658,91.0339 L81.8445,95.4047 M81.8445,95.4047 L83.0699,94.7917 M83.0699,94.7917 L80.8834,90.4209 M80.8834,90.4209 L79.658,91.0339 " style="stroke:#000000;stroke-width:0;"/>
        <!-- Polyline -->
        <path d="M86.9086,93.3477 L89.0951,97.7186 M89.0951,97.7186 L90.3205,97.1056 M90.3205,97.1056 L88.134,92.7347 M88.134,92.7347 L86.9086,93.3477 " style="stroke:#000000;stroke-width:0;"/>
        <!-- Polyline -->
        <path d="M93.7425,95.5286 L95.9289,99.8994 M95.9289,99.8994 L97.1544,99.2864 M97.1544,99.2864 L94.9679,94.9156 M94.9679,94.9156 L93.7425,95.5286 " style="stroke:#000000;stroke-width:0;"/>
        <!-- Line -->
        <path d="M187.162,106.843 L168.917,164.015 " style="stroke:#000000;stroke-width:0;"/>
        <!-- Line -->
        <path d="M206.635,211.185 L204,211.132 " style="stroke:#000000;stroke-width:0;"/>
        <!-- Line -->
        <path d="M162.178,210.288 L158.156,210.206 " style="stroke:#000000;stroke-width:0;"/>
        <!-- Line -->
        <path d="M204.351,280.324 L204,280.328 " style="stroke:#000000;stroke-width:0;"/>
        <!-- Line -->
        <path d="M206.648,210.821 L206.635,211.185 " style="stroke:#000000;stroke-width:0;"/>
        <!-- Line -->
        <path d="M204.116,280.126 L204.08,281.112 " style="stroke:#000000;stroke-width:0;"/>
        <!-- Line -->
        <path d="M206.087,210.807 L206.648,210.821 " style="stroke:#000000;stroke-width:0;"/>
        <!-- Line -->
        <path d="M110.347,79.9744 L189.333,105.181 " style="stroke:#000000;stroke-width:0;"/>
        <!-- Polyline -->
        <path d="M39.3765,93.8108 L41.5629,98.1816 M41.5629,98.1816 L42.7883,97.5687 M42.7883,97.5687 L40.6019,93.1978 M40.6019,93.1978 L39.3765,93.8108 " style="stroke:#000000;stroke-width:0;"/>
        <!-- Polyline -->
        <path d="M46.2191,96.221 L48.4056,100.592 M48.4056,100.592 L49.631,99.9788 M49.631,99.9788 L47.4446,95.608 M47.4446,95.608 L46.2191,96.221 " style="stroke:#000000;stroke-width:0;"/>
        <!-- Polyline -->
        <path d="M53.6666,98.7813 L55.853,103.152 M55.853,103.152 L57.0784,102.539 M57.0784,102.539 L54.892,98.1683 M54.892,98.1683 L53.6666,98.7813 " style="stroke:#000000;stroke-width:0;"/>
        <!-- Polyline -->
        <path d="M60.7771,100.959 L62.9635,105.329 M62.9635,105.329 L64.1889,104.716 M64.1889,104.716 L62.0025,100.346 M62.0025,100.346 L60.7771,100.959 " style="stroke:#000000;stroke-width:0;"/>
        <!-- Polyline -->
        <path d="M68.1677,103.409 L70.3542,107.78 M70.3542,107.78 L71.5796,107.167 M71.5796,107.167 L69.3931,102.796 M69.3931,102.796 L68.1677,103.409 " style="stroke:#000000;stroke-width:0;"/>
        <!-- Polyline -->
        <path d="M75.2215,105.476 L77.4079,109.847 M77.4079,109.847 L78.6333,109.234 M78.6333,109.234 L76.4469,104.863 M76.4469,104.863 L75.2215,105.476 " style="stroke:#000000;stroke-width:0;"/>
        <!-- Polyline -->
        <path d="M82.4721,107.79 L84.6585,112.161 M84.6585,112.161 L85.8839,111.548 M85.8839,111.548 L83.6975,107.177 M83.6975,107.177 L82.4721,107.79 " style="stroke:#000000;stroke-width:0;"/>
        <!-- Polyline -->
        <path d="M89.306,109.971 L91.4924,114.342 M91.4924,114.342 L92.7178,113.729 M92.7178,113.729 L90.5314,109.358 M90.5314,109.358 L89.306,109.971 " style="stroke:#000000;stroke-width:0;"/>
        <!-- Polyline -->
        <path d="M36.9913,100.506 L39.1778,104.877 M39.1778,104.877 L40.4032,104.264 M40.4032,104.264 L38.2167,99.8929 M38.2167,99.8929 L36.9913,100.506 " style="stroke:#000000;stroke-width:0;"/>
        <!-- Polyline -->
        <path d="M43.834,102.916 L46.0205,107.287 M46.0205,107.287 L47.2459,106.674 M47.2459,106.674 L45.0594,102.303 M45.0594,102.303 L43.834,102.916 " style="stroke:#000000;stroke-width:0;"/>
        <!-- Polyline -->
        <path d="M51.2814,105.476 L53.4679,109.847 M53.4679,109.847 L54.6933,109.234 M54.6933,109.234 L52.5069,104.863 M52.5069,104.863 L51.2814,105.476 " style="stroke:#000000;stroke-width:0;"/>
        <!-- Polyline -->
        <path d="M58.392,107.654 L60.5784,112.025 M60.5784,112.025 L61.8038,111.412 M61.8038,111.412 L59.6174,107.041 M59.6174,107.041 L58.392,107.654 " style="stroke:#000000;stroke-width:0;"/>
        <!-- Polyline -->
        <path d="M65.7826,110.104 L67.9691,114.475 M67.9691,114.475 L69.1945,113.862 M69.1945,113.862 L67.008,109.491 M67.008,109.491 L65.7826,110.104 " style="stroke:#000000;stroke-width:0;"/>
        <!-- Polyline -->
        <path d="M72.8364,112.171 L75.0228,116.542 M75.0228,116.542 L76.2482,115.929 M76.2482,115.929 L74.0618,111.558 M74.0618,111.558 L72.8364,112.171 " style="stroke:#000000;stroke-width:0;"/>
        <!-- Polyline -->
        <path d="M80.087,114.485 L82.2734,118.856 M82.2734,118.856 L83.4988,118.243 M83.4988,118.243 L81.3124,113.872 M81.3124,113.872 L80.087,114.485 " style="stroke:#000000;stroke-width:0;"/>
        <!-- Polyline -->
        <path d="M86.9209,116.666 L89.1073,121.037 M89.1073,121.037 L90.3327,120.424 M90.3327,120.424 L88.1463,116.053 M88.1463,116.053 L86.9209,116.666 " style="stroke:#000000;stroke-width:0;"/>
        <!-- Polyline -->
        <path d="M34.6878,107.724 L36.8743,112.095 M36.8743,112.095 L38.0997,111.482 M38.0997,111.482 L35.9132,107.111 M35.9132,107.111 L34.6878,107.724 " style="stroke:#000000;stroke-width:0;"/>
        <!-- Polyline -->
        <path d="M41.5305,110.134 L43.7169,114.505 M43.7169,114.505 L44.9424,113.892 M44.9424,113.892 L42.7559,109.521 M42.7559,109.521 L41.5305,110.134 " style="stroke:#000000;stroke-width:0;"/>
        <!-- Polyline -->
        <path d="M48.9779,112.695 L51.1644,117.066 M51.1644,117.066 L52.3898,116.453 M52.3898,116.453 L50.2033,112.082 M50.2033,112.082 L48.9779,112.695 " style="stroke:#000000;stroke-width:0;"/>
        <!-- Polyline -->
        <path d="M56.0884,114.872 L58.2749,119.243 M58.2749,119.243 L59.5003,118.63 M59.5003,118.63 L57.3138,114.259 M57.3138,114.259 L56.0884,114.872 " style="stroke:#000000;stroke-width:0;"/>
        <!-- Polyline -->
        <path d="M63.4791,117.322 L65.6655,121.693 M65.6655,121.693 L66.8909,121.08 M66.8909,121.08 L64.7045,116.709 M64.7045,116.709 L63.4791,117.322 " style="stroke:#000000;stroke-width:0;"/>
        <!-- Polyline -->
        <path d="M70.5329,119.39 L72.7193,123.761 M72.7193,123.761 L73.9447,123.148 M73.9447,123.148 L71.7583,118.777 M71.7583,118.777 L70.5329,119.39 " style="stroke:#000000;stroke-width:0;"/>
        <!-- Polyline -->
        <path d="M77.7835,121.704 L79.9699,126.074 M79.9699,126.074 L81.1953,125.461 M81.1953,125.461 L79.0089,121.091 M79.0089,121.091 L77.7835,121.704 " style="stroke:#000000;stroke-width:0;"/>
        <!-- Polyline -->
        <path d="M84.6173,123.884 L86.8038,128.255 M86.8038,128.255 L88.0292,127.642 M88.0292,127.642 L85.8428,123.271 M85.8428,123.271 L84.6173,123.884 " style="stroke:#000000;stroke-width:0;"/>
        <!-- Polyline -->
        <path d="M32.6099,115.014 L34.7963,119.385 M34.7963,119.385 L36.0217,118.772 M36.0217,118.772 L33.8353,114.401 M33.8353,114.401 L32.6099,115.014 " style="stroke:#000000;stroke-width:0;"/>
        <!-- Polyline -->
        <path d="M39.4526,117.425 L41.639,121.795 M41.639,121.795 L42.8644,121.182 M42.8644,121.182 L40.678,116.812 M40.678,116.812 L39.4526,117.425 " style="stroke:#000000;stroke-width:0;"/>
        <!-- Polyline -->
        <path d="M46.9,119.985 L49.0864,124.356 M49.0864,124.356 L50.3118,123.743 M50.3118,123.743 L48.1254,119.372 M48.1254,119.372 L46.9,119.985 " style="stroke:#000000;stroke-width:0;"/>
        <!-- Polyline -->
        <path d="M54.0105,122.162 L56.1969,126.533 M56.1969,126.533 L57.4223,125.92 M57.4223,125.92 L55.2359,121.549 M55.2359,121.549 L54.0105,122.162 " style="stroke:#000000;stroke-width:0;"/>
        <!-- Polyline -->
        <path d="M61.4012,124.613 L63.5876,128.983 M63.5876,128.983 L64.813,128.37 M64.813,128.37 L62.6266,124 M62.6266,124 L61.4012,124.613 " style="stroke:#000000;stroke-width:0;"/>
        <!-- Polyline -->
        <path d="M68.4549,126.68 L70.6414,131.051 M70.6414,131.051 L71.8668,130.438 M71.8668,130.438 L69.6803,126.067 M69.6803,126.067 L68.4549,126.68 " style="stroke:#000000;stroke-width:0;"/>
        <!-- Polyline -->
        <path d="M75.7055,128.994 L77.8919,133.365 M77.8919,133.365 L79.1174,132.752 M79.1174,132.752 L76.9309,128.381 M76.9309,128.381 L75.7055,128.994 " style="stroke:#000000;stroke-width:0;"/>
        <!-- Polyline -->
        <path d="M82.5394,131.175 L84.7258,135.545 M84.7258,135.545 L85.9512,134.933 M85.9512,134.933 L83.7648,130.562 M83.7648,130.562 L82.5394,131.175 " style="stroke:#000000;stroke-width:0;"/>
        <!-- Polyline -->
        <path d="M46.1334,71.8585 L48.3199,76.2293 M48.3199,76.2293 L49.5453,75.6163 M49.5453,75.6163 L47.3588,71.2455 M47.3588,71.2455 L46.1334,71.8585 " style="stroke:#000000;stroke-width:0;"/>
        <!-- Polyline -->
        <path d="M52.9761,74.2687 L55.1625,78.6395 M55.1625,78.6395 L56.3879,78.0265 M56.3879,78.0265 L54.2015,73.6557 M54.2015,73.6557 L52.9761,74.2687 " style="stroke:#000000;stroke-width:0;"/>
        <!-- Polyline -->
        <path d="M60.4235,76.829 L62.61,81.1998 M62.61,81.1998 L63.8354,80.5868 M63.8354,80.5868 L61.6489,76.216 M61.6489,76.216 L60.4235,76.829 " style="stroke:#000000;stroke-width:0;"/>
        <!-- Polyline -->
        <path d="M67.534,79.0063 L69.7205,83.3771 M69.7205,83.3771 L70.9459,82.7641 M70.9459,82.7641 L68.7594,78.3933 M68.7594,78.3933 L67.534,79.0063 " style="stroke:#000000;stroke-width:0;"/>
        <!-- Polyline -->
        <path d="M74.9247,81.4566 L77.1111,85.8275 M77.1111,85.8275 L78.3365,85.2145 M78.3365,85.2145 L76.1501,80.8436 M76.1501,80.8436 L74.9247,81.4566 " style="stroke:#000000;stroke-width:0;"/>
        <!-- Polyline -->
        <path d="M81.9785,83.524 L84.1649,87.8948 M84.1649,87.8948 L85.3903,87.2818 M85.3903,87.2818 L83.2039,82.911 M83.2039,82.911 L81.9785,83.524 " style="stroke:#000000;stroke-width:0;"/>
        <!-- Polyline -->
        <path d="M89.2291,85.8378 L91.4155,90.2087 M91.4155,90.2087 L92.6409,89.5957 M92.6409,89.5957 L90.4545,85.2248 M90.4545,85.2248 L89.2291,85.8378 " style="stroke:#000000;stroke-width:0;"/>
        <!-- Polyline -->
        <path d="M96.0629,88.0187 L98.2494,92.3895 M98.2494,92.3895 L99.4748,91.7765 M99.4748,91.7765 L97.2883,87.4057 M97.2883,87.4057 L96.0629,88.0187 " style="stroke:#000000;stroke-width:0;"/>
        <!-- Polyline -->
        <path d="M48.5905,64.9377 L50.777,69.3086 M50.777,69.3086 L52.0024,68.6956 M52.0024,68.6956 L49.8159,64.3248 M49.8159,64.3248 L48.5905,64.9377 " style="stroke:#000000;stroke-width:0;"/>
        <!-- Polyline -->
        <path d="M55.4332,67.3479 L57.6196,71.7188 M57.6196,71.7188 L58.8451,71.1058 M58.8451,71.1058 L56.6586,66.735 M56.6586,66.735 L55.4332,67.3479 " style="stroke:#000000;stroke-width:0;"/>
        <!-- Polyline -->
        <path d="M62.8806,69.9082 L65.0671,74.2791 M65.0671,74.2791 L66.2925,73.6661 M66.2925,73.6661 L64.106,69.2953 M64.106,69.2953 L62.8806,69.9082 " style="stroke:#000000;stroke-width:0;"/>
        <!-- Polyline -->
        <path d="M69.9911,72.0855 L72.1776,76.4564 M72.1776,76.4564 L73.403,75.8434 M73.403,75.8434 L71.2165,71.4726 M71.2165,71.4726 L69.9911,72.0855 " style="stroke:#000000;stroke-width:0;"/>
        <!-- Polyline -->
        <path d="M77.3818,74.5359 L79.5682,78.9067 M79.5682,78.9067 L80.7936,78.2938 M80.7936,78.2938 L78.6072,73.9229 M78.6072,73.9229 L77.3818,74.5359 " style="stroke:#000000;stroke-width:0;"/>
        <!-- Polyline -->
        <path d="M84.4356,76.6033 L86.622,80.9741 M86.622,80.9741 L87.8474,80.3611 M87.8474,80.3611 L85.661,75.9903 M85.661,75.9903 L84.4356,76.6033 " style="stroke:#000000;stroke-width:0;"/>
        <!-- Polyline -->
        <path d="M91.6862,78.9171 L93.8726,83.2879 M93.8726,83.2879 L95.098,82.675 M95.098,82.675 L92.9116,78.3041 M92.9116,78.3041 L91.6862,78.9171 " style="stroke:#000000;stroke-width:0;"/>
        <!-- Polyline -->
        <path d="M98.52,81.098 L100.706,85.4688 M100.706,85.4688 L101.932,84.8558 M101.932,84.8558 L99.7455,80.485 M99.7455,80.485 L98.52,81.098 " style="stroke:#000000;stroke-width:0;"/>
        <!-- Line -->
        <path d="M91.5561,139.403 L170.366,164.553 " style="stroke:#000000;stroke-width:0;"/>
        <!-- Line -->
        <path d="M89.6136,143.631 L168.92,168.94 " style="stroke:#000000;stroke-width:0;"/>
        <!-- Line -->
        <path d="M90.0716,141.418 L170.513,167.088 " style="stroke:#000000;stroke-width:0;"/>
        <!-- Line -->
        <path d="M159.364,209.683 L64.5294,209.045 " style="stroke:#000000;stroke-width:0;"/>
        <!-- Line -->
        <path d="M65.2259,277.772 L163.368,277.658 " style="stroke:#000000;stroke-width:0;"/>
        <!-- Line -->
        <path d="M162.768,280.7 L162.91,291.767 " style="stroke:#000000;stroke-width:0;"/>
        <!-- Line -->
        <path d="M162.91,291.767 L203.865,291.715 " style="stroke:#000000;stroke-width:0;"/>
        <!-- Line -->
        <path d="M204.503,279.848 L204.488,280.126 " style="stroke:#000000;stroke-width:0;"/>
        <!-- Line -->
        <path d="M204,289.198 L203.865,291.715 " style="stroke:#000000;stroke-width:0;"/>
        <!-- Line -->
        <path d="M162.331,209.707 L163.922,198.143 " style="stroke:#000000;stroke-width:0;"/>
        <!-- Line -->
        <path d="M163.77,198.619 L204,198.405 " style="stroke:#000000;stroke-width:0;"/>
        <!-- Line -->
        <path d="M206.44,210.816 L206.467,211.195 " style="stroke:#000000;stroke-width:0;"/>
        <!-- Line -->
        <path d="M64.7254,280.378 L68.8099,290.604 " style="stroke:#000000;stroke-width:0;"/>
        <!-- Line -->
        <path d="M160.273,209.575 L159.91,279.788 " style="stroke:#000000;stroke-width:0;"/>
        <!-- Line -->
        <path d="M204,292 L204,198 " style="stroke:#000000;stroke-width:0;"/>
        <!-- Line -->
        <path d="M162,213 L210,213 " style="stroke:#000000;stroke-width:0;"/>
        <!-- Line -->
        <path d="M162,278 L213,278 " style="stroke:#000000;stroke-width:0;"/>
        <!-- Line -->
        <path d="M162,281 L210,281 " style="stroke:#000000;stroke-width:0;"/>
        <!-- Line -->
        <path d="M159,210 L208,210 " style="stroke:#000000;stroke-width:0;"/>
        <!-- Text: QCAD Trial Version -->
        <g>
            <path d="M-139.792,-8.69808 L-139.792,-2.48517 M-137.307,0 C-138.679,0 -139.792,-1.11265 -139.792,-2.48517 M-137.307,0 L-136.064,0 M-133.579,-2.48517 C-133.579,-1.11265 -134.692,0 -136.064,0 M-133.579,-2.48517 L-133.579,-8.69808 M-136.064,-11.1832 C-134.692,-11.1832 -133.579,-10.0706 -133.579,-8.69808 M-136.064,-11.1832 L-137.307,-11.1832 M-139.792,-8.69808 C-139.792,-10.0706 -138.679,-11.1832 -137.307,-11.1832 M-132.336,-11.1832 L-136.064,-8.69808 " style="stroke:#000000;stroke-width:0.05;"/>
            <path d="M-123.638,0 L-126.123,0 C-127.496,0 -128.609,-1.11265 -128.609,-2.48517 L-128.609,-8.69808 C-128.609,-10.0706 -127.496,-11.1832 -126.123,-11.1832 L-123.638,-11.1832 " style="stroke:#000000;stroke-width:0.05;"/>
            <path d="M-119.911,-11.1832 L-116.183,0 L-112.455,-11.1832 M-118.875,-8.07679 L-113.49,-8.07679 " style="stroke:#000000;stroke-width:0.05;"/>
            <path d="M-108.727,-11.1832 L-105,-11.1832 C-103.627,-11.1832 -102.514,-10.0706 -102.514,-8.69808 L-102.514,-2.48517 C-102.514,-1.11265 -103.627,0 -105,0 L-108.727,0 L-108.727,-11.1832 " style="stroke:#000000;stroke-width:0.05;"/>
            <path d="M-94.127,0 L-86.6715,0 M-90.3992,0 L-90.3992,-11.1832 " style="stroke:#000000;stroke-width:0.05;"/>
            <path d="M-82.9437,-11.1832 L-82.9437,-3.72775 L-80.4586,-3.72775 M-79.216,-4.97033 C-79.216,-4.28407 -79.7723,-3.72775 -80.4586,-3.72775 " style="stroke:#000000;stroke-width:0.05;"/>
            <path d="M-75.4882,-11.1832 L-75.4882,-3.72775 M-75.4882,-0.621291 L-75.4882,0 " style="stroke:#000000;stroke-width:0.05;"/>
            <path d="M-71.1392,-3.72775 L-68.654,-3.72775 M-66.7901,-5.59162 C-66.7901,-4.56223 -67.6246,-3.72775 -68.654,-3.72775 M-66.7901,-5.59162 L-66.7901,-11.1832 L-69.8966,-11.1832 M-69.8966,-7.4555 C-70.926,-7.4555 -71.7605,-8.28998 -71.7605,-9.31937 C-71.7605,-10.3488 -70.926,-11.1832 -69.8966,-11.1832 M-69.8966,-7.4555 L-66.7901,-7.4555 " style="stroke:#000000;stroke-width:0.05;"/>
            <path d="M-63.0624,0 L-63.0624,-9.94066 C-63.0624,-10.6269 -62.5061,-11.1832 -61.8198,-11.1832 " style="stroke:#000000;stroke-width:0.05;"/>
            <path d="M-53.4324,0 L-49.7046,-11.1832 L-45.9769,0 " style="stroke:#000000;stroke-width:0.05;"/>
            <path d="M-42.2491,-7.4555 L-37.2788,-7.4555 L-37.2788,-6.21291 C-37.2788,-4.8404 -38.3914,-3.72775 -39.764,-3.72775 C-41.1365,-3.72775 -42.2491,-4.8404 -42.2491,-6.21291 L-42.2491,-9.31937 C-42.2491,-10.3488 -41.4146,-11.1832 -40.3853,-11.1832 L-37.2788,-11.1832 " style="stroke:#000000;stroke-width:0.05;"/>
            <path d="M-33.5511,-11.1832 L-33.5511,-3.72775 L-31.0659,-3.72775 M-29.8233,-4.97033 C-29.8233,-4.28407 -30.3796,-3.72775 -31.0659,-3.72775 " style="stroke:#000000;stroke-width:0.05;"/>
            <path d="M-21.1258,-4.42481 L-21.1246,-4.42423 C-21.8101,-4.0757 -22.5854,-3.87934 -23.4066,-3.87934 C-23.9604,-3.87934 -24.4933,-3.96863 -24.9907,-4.13326 M-24.9882,-4.13369 L-24.9885,-4.13338 C-25.5826,-4.33001 -26.0111,-4.88966 -26.0111,-5.54938 C-26.0111,-6.17341 -25.6277,-6.70791 -25.0839,-6.93015 M-25.0833,-6.92989 L-22.1379,-8.13271 M-22.2326,-10.9289 L-22.2323,-10.9292 C-21.6382,-10.7326 -21.2097,-10.1729 -21.2097,-9.51321 C-21.2097,-8.88928 -21.5929,-8.35484 -22.1366,-8.13254 M-26.095,-10.6378 L-26.0962,-10.6384 C-25.4107,-10.9869 -24.6354,-11.1832 -23.8142,-11.1832 C-23.2604,-11.1832 -22.7275,-11.094 -22.2301,-10.9293 " style="stroke:#000000;stroke-width:0.05;"/>
            <path d="M-17.3962,-11.1832 L-17.3962,-3.72775 M-17.3962,-0.621291 L-17.3962,0 " style="stroke:#000000;stroke-width:0.05;"/>
            <path d="M-13.6684,-6.21291 L-13.6684,-8.69808 C-13.6684,-10.0706 -12.5558,-11.1832 -11.1832,-11.1832 C-9.81073,-11.1832 -8.69808,-10.0706 -8.69808,-8.69808 L-8.69808,-6.21291 C-8.69808,-4.8404 -9.81073,-3.72775 -11.1832,-3.72775 C-12.5558,-3.72775 -13.6684,-4.8404 -13.6684,-6.21291 " style="stroke:#000000;stroke-width:0.05;"/>
            <path d="M-4.97033,-11.1832 L-4.97033,-3.72775 L-1.86387,-3.72775 M0,-5.59162 C0,-4.56223 -0.834485,-3.72775 -1.86387,-3.72775 M0,-5.59162 L0,-11.1832 " style="stroke:#000000;stroke-width:0.05;"/>
        </g>
    </g>
</svg>
