0
SECTION
2
HEADER
9
$ANGDIR
70
0
9
$CHAMFERA
40
10
9
$CHAMFERB
40
10
9
$CLAYER
8
Layer_1
9
$EXTMAX
10
221.42352605644018
20
292
9
$EXTMIN
10
-2.2414030659520541
20
9.135231932577085
9
$LIMMAX
10
221.42352605644018
20
297
9
$LIMMIN
10
-2.2414030659520541
20
0
9
$LTSCALE
40
10
9
$PLINEGEN
70
0
9
$TEXTSIZE
40
20
9
$GRIDUNIT
10
10
20
10
9
$SNAPUNIT
10
1
20
1
0
ENDSEC
0
SECTION
2
TABLES
0
TABLE
2
STYLE
70
1
0
STYLE
2
STANDARD
70
0
40
0
41
1
50
0
71
0
42
0.20000000000000001
3
txt
4

0
ENDTAB
0
TABLE
2
LTYPE
70
14
0
LTYPE
2
CONTINUOUS
70
0
3
Solid line
72
65
73
0
40
0
0
LTYPE
2
DOT
70
0
3
............................................
72
65
73
2
40
0.25
49
0
49
-0.25
0
LTYPE
2
HIDDEN
70
0
3
_ _ _ _ _ _ _ _ _ _ _ _ _ _ _ _ _ _ _ _ _ _ 
72
65
73
2
40
0.375
49
0.25
49
-0.125
0
LTYPE
2
TSLONGDASH
70
0
3
__ __ __ __ __ __ __ __ __ __ __ __ __ __ _ 
72
65
73
2
40
1.28
49
1
49
-0.28000000000000003
0
LTYPE
2
TSDASHDOT
70
0
3
______ . ______ . ______ . ______ . ______ .
72
65
73
4
40
1.28
49
1
49
-0.14000000000000001
49
0
49
-0.14000000000000001
0
LTYPE
2
TSCENTER
70
0
3
______ _ ______ _ ______ _ ______ _ ______ _
72
65
73
4
40
2
49
1.5
49
-0.17999999999999999
49
0.14000000000000001
49
-0.17999999999999999
0
LTYPE
2
TSPHANTOM
70
0
3
_____ _ _ _____ _ _ _____ _ _ _____ _ _ ____
72
65
73
6
40
2.5
49
1.6299999999999999
49
-0.19
49
0.14999999999999999
49
-0.19
49
0.14999999999999999
49
-0.19
0
LTYPE
2
DASHED
70
0
3
__ __ __ __ __ __ __ __ __ __ __ __ __ __ __
72
65
73
2
40
0.75
49
0.5
49
-0.25
0
LTYPE
2
CENTER
70
0
3
____ _ ____ _ ____ _ ____ _ ____ _ ____ _ __
72
65
73
4
40
2
49
1.25
49
-0.25
49
0.25
49
-0.25
0
LTYPE
2
PHANTOM
70
0
3
_____ _ _ _____ _ _ _____ _ _ _____ _ _ ____
72
65
73
6
40
2.5
49
1.25
49
-0.25
49
0.25
49
-0.25
49
0.25
49
-0.25
0
LTYPE
2
DASHDOT
70
0
3
__ . __ . __ . __ . __ . __ . __ . __ . __ .
72
65
73
4
40
1
49
0.5
49
-0.25
49
0
49
-0.25
0
LTYPE
2
BORDER
70
0
3
__ __ . __ __ . __ __ . __ __ . __ __ . __ _
72
65
73
6
40
1.75
49
0.5
49
-0.25
49
0.5
49
-0.25
49
0
49
-0.25
0
LTYPE
2
DIVIDE
70
0
3
__ . . __ . . __ . . __ . . __ . . __ . . __
72
65
73
6
40
1.25
49
0.5
49
-0.25
49
0
49
-0.25
49
0
49
-0.25
0
ENDTAB
0
TABLE
2
LAYER
70
3
0
LAYER
2
Layer_1
70
0
62
7
6
CONTINUOUS
0
LAYER
2
Layer_2
70
0
62
7
6
CONTINUOUS
0
LAYER
2
Layer_3
70
0
62
7
6
CONTINUOUS
0
ENDTAB
0
ENDSEC
0
SECTION
2
ENTITIES
0
LINE
8
Layer_1
6
CONTINUOUS
39
0.5
62
7
10
42.002200473551525
20
63.672936126384741
11
25.433215932605684
21
115.59324767477493
0
LINE
8
Layer_1
6
CONTINUOUS
39
0.5
62
7
10
49.191193074160012
20
57.592012138938401
11
106.35116909073631
21
75.833096037227548
0
LINE
8
Layer_1
6
CONTINUOUS
39
0.5
62
7
10
85.069904542732502
20
142.51973472323323
11
27.909928526156197
21
124.27865082494418
0
LINE
8
Layer_1
6
CONTINUOUS
39
0.5
62
7
10
109.60089335447167
20
82.096201873559707
11
91.359809456182674
21
139.25617789013606
0
LINE
8
Layer_1
6
CONTINUOUS
39
0.5
62
7
10
110.37598338061953
20
77.495553819383858
11
189.18602141516646
21
102.64567836454856
0
LINE
8
Layer_1
6
CONTINUOUS
39
0.5
62
7
10
204.86967497125278
20
62.486435252556404
11
127.66740244268419
21
9.135231932577085
0
LINE
8
Layer_1
6
CONTINUOUS
39
0.5
62
7
10
41.877207166587915
20
63.782755653552286
11
14.762817605788973
21
55.12992041292884
0
LINE
8
Layer_1
6
CONTINUOUS
39
0.5
62
7
10
25.177642557327761
20
115.51950011068955
11
-2.2414030659520541
21
106.7694420021939
0
LINE
8
Layer_1
6
CONTINUOUS
39
0.5
62
7
10
14.749798294142897
20
55.170717524854666
11
-1.7650699324805768
21
106.92145103467968
0
LINE
8
Layer_1
6
CONTINUOUS
39
0.5
62
7
10
202.82833481862551
20
67.221029119175753
11
125.84329405285523
21
14.851229534234761
0
LINE
8
Layer_1
6
CONTINUOUS
39
0.5
62
7
10
64.02069856497387
20
209.03705863531246
11
64.585371386827887
21
280.81686060457241
0
LINE
8
Layer_1
6
CONTINUOUS
39
0.5
62
7
10
64.313875693306898
20
280.62953473368219
11
162.45599528709309
21
280.51588695316764
0
LINE
8
Layer_1
6
CONTINUOUS
39
0.5
62
7
10
162.17881922520206
20
210.18294734587002
11
161.81560047791436
21
280.39596659544793
0
LINE
8
Layer_1
6
CONTINUOUS
39
0.5
62
7
10
203.93090772776887
20
280.12637872117261
11
204.48785273727503
21
280.12617690780934
0
LINE
8
Layer_1
6
CONTINUOUS
39
0.5
62
7
10
68.686315352388007
20
290.29421878380822
11
157.41809558730131
21
289.21838886738396
0
LINE
8
Layer_1
6
CONTINUOUS
39
0.5
62
7
10
156.27981322752603
20
289.47089682508357
11
162.22692746430604
21
280.74699367366031
0
ARC
8
Layer_1
6
CONTINUOUS
39
0.5
62
7
10
86.58999486758988
20
137.75640338851846
40
4.9999999999999947
50
17.699098103312835
51
107.69909810588416
0
ARC
8
Layer_1
6
CONTINUOUS
39
0.5
62
7
10
47.67110274930257
20
62.355343473653164
40
4.9999999999999876
50
197.69909809816809
51
287.69909810074012
0
ARC
8
Layer_1
6
CONTINUOUS
39
0.5
62
7
10
29.43001885101355
20
119.51531949022956
40
4.9999999999999112
50
107.69909810588437
51
197.69909809816841
0
ARC
8
Layer_1
6
CONTINUOUS
39
0.5
62
7
10
104.83107876587889
20
80.596427371942198
40
4.9999999999999583
50
287.69909810074023
51
17.699098103312622
0
LINE
8
Layer_1
6
CONTINUOUS
39
0.5
62
7
10
109.62937890453762
20
82.105292278154963
11
187.74032228029336
21
107.03231938324791
0
LINE
8
Layer_1
6
CONTINUOUS
39
0.5
62
7
10
111.14946922939502
20
77.341960943440256
11
128.03373016123666
21
9.3180378075301462
0
LINE
8
Layer_1
6
CONTINUOUS
39
0.5
62
7
10
187.34876565940388
20
107.20375642162901
11
204.74196649446998
21
62.398181361998894
0
LINE
8
Layer_1
6
CONTINUOUS
39
0.5
62
7
10
221.42017523832928
20
20.856358296113626
11
221.42352605644018
21
20.848012130453554
0
LINE
8
Layer_1
6
CONTINUOUS
39
0.5
62
7
10
163.95244876261646
20
212.8483250421846
11
64.182061717808779
21
213.00582284559152
0
LINE
8
Layer_1
6
CONTINUOUS
39
0.5
62
7
10
89.868204681391163
20
144.02859962944592
11
64.221627441450934
21
209.27864767964351
0
LINE
8
Layer_1
6
CONTINUOUS
39
0.5
62
7
10
91.388295006248583
20
139.26526829473124
11
89.868204681391163
21
144.02859962944592
0
LINE
8
Layer_1
6
CONTINUOUS
39
0.5
62
7
10
169.02002946692789
20
164.01154806956609
11
157.38245150255435
21
210.56829767036032
0
LINE
8
Layer_1
6
CONTINUOUS
39
0.5
62
7
10
42.030686023617427
20
63.68202653097994
11
43.094749251017646
21
60.347694596679645
0
LINE
8
Layer_1
6
CONTINUOUS
39
0.5
62
7
10
25.461701482671582
20
115.60233807937004
11
24.397638255271413
21
118.93667001367034
0
LINE
8
Layer_1
6
CONTINUOUS
39
0.5
62
7
10
109.62937890453762
20
82.105292278154963
11
111.14946922939502
21
77.341960943440256
0
LINE
8
Layer_1
6
CONTINUOUS
39
0.5
62
7
10
163.42451420798508
20
224.15279556911656
11
179.42448922336024
21
224.12452000764992
0
LINE
8
Layer_1
6
CONTINUOUS
39
0.5
62
7
10
163.45455699280683
20
241.15276902295113
11
179.45453200818156
21
241.12449346148441
0
LINE
8
Layer_1
6
CONTINUOUS
39
0.5
62
7
10
179.4244892233589
20
224.12452000693145
11
179.45453200818034
21
241.12449346076622
0
LINE
8
Layer_1
6
CONTINUOUS
39
0.5
62
7
10
163.42451420798508
20
224.15279556911656
11
163.45455699280683
21
241.15276902295113
0
LINE
8
Layer_1
6
CONTINUOUS
39
0.5
62
7
10
163.48283255499166
20
257.1527440383249
11
177.48281069344478
21
257.12800292204162
0
LINE
8
Layer_1
6
CONTINUOUS
39
0.5
62
7
10
163.48283255499166
20
257.1527440383249
11
163.50050478135728
21
267.15272842293354
0
LINE
8
Layer_1
6
CONTINUOUS
39
0.5
62
7
10
163.50050478135728
20
267.15272842293354
11
177.50048291981031
21
267.12798730665008
0
LINE
8
Layer_1
6
CONTINUOUS
39
0.5
62
7
10
177.48281069344355
20
257.12800292141304
11
177.5004829198092
21
267.12798730602162
0
LINE
8
Layer_1
6
CONTINUOUS
39
0.5
62
7
10
157.40529511569676
20
210.49671528048515
11
162.51508587646762
21
210.77386652252568
0
LINE
8
Layer_1
6
CONTINUOUS
39
0.5
62
7
10
27.959999924833649
20
124.04278545487283
11
22.941715005480706
21
139.76800481321737
0
LINE
8
Layer_1
6
CONTINUOUS
39
0.5
62
7
10
85.145023347750737
20
142.25908860525445
11
80.070575935850755
21
158.16029787433669
0
LINE
8
Layer_1
6
CONTINUOUS
39
0.5
62
7
10
22.995843126923539
20
139.59838977604375
11
80.158853561480825
21
158.18900762195074
0
LINE
8
Layer_1
6
CONTINUOUS
39
0.5
62
7
10
49.112038580685805
20
57.567472973124126
11
55.034564447872206
21
39.008738283148759
0
LINE
8
Layer_1
6
CONTINUOUS
39
0.5
62
7
10
106.60960224296007
20
75.92343537093565
11
112.53419790419571
21
57.358214806608046
0
LINE
8
Layer_1
6
CONTINUOUS
39
0.5
62
7
10
54.883287918021168
20
38.960462407874473
11
112.53419790419571
21
57.358214806608046
0
POLYLINE
8
Layer_1
6
CONTINUOUS
39
0.5
62
7
66
1
10
0
20
0
70
129
40
0.5
41
0.5
0
VERTEX
8
Layer_1
6
CONTINUOUS
39
0.5
62
7
10
41.589626029913596
20
86.350890681199374
0
VERTEX
8
Layer_1
6
CONTINUOUS
39
0.5
62
7
10
43.776059170445805
20
90.721730168614783
0
VERTEX
8
Layer_1
6
CONTINUOUS
39
0.5
62
7
10
45.001462743495573
20
90.108744267312161
0
VERTEX
8
Layer_1
6
CONTINUOUS
39
0.5
62
7
10
42.815029602963421
20
85.737904779896766
0
VERTEX
8
Layer_1
6
CONTINUOUS
39
0.5
62
7
10
41.589626029913596
20
86.350890681199374
0
SEQEND
0
POLYLINE
8
Layer_1
6
CONTINUOUS
39
0.5
62
7
66
1
10
0
20
0
70
129
40
0.5
41
0.5
0
VERTEX
8
Layer_1
6
CONTINUOUS
39
0.5
62
7
10
48.432310982626475
20
88.761089417624135
0
VERTEX
8
Layer_1
6
CONTINUOUS
39
0.5
62
7
10
50.618744123158621
20
93.131928905039572
0
VERTEX
8
Layer_1
6
CONTINUOUS
39
0.5
62
7
10
51.844147696208402
20
92.518943003736879
0
VERTEX
8
Layer_1
6
CONTINUOUS
39
0.5
62
7
10
49.657714555676279
20
88.148103516321484
0
VERTEX
8
Layer_1
6
CONTINUOUS
39
0.5
62
7
10
48.432310982626475
20
88.761089417624135
0
SEQEND
0
POLYLINE
8
Layer_1
6
CONTINUOUS
39
0.5
62
7
66
1
10
0
20
0
70
129
40
0.5
41
0.5
0
VERTEX
8
Layer_1
6
CONTINUOUS
39
0.5
62
7
10
55.879729005435649
20
91.321389398036644
0
VERTEX
8
Layer_1
6
CONTINUOUS
39
0.5
62
7
10
58.066162145967809
20
95.69222888545201
0
VERTEX
8
Layer_1
6
CONTINUOUS
39
0.5
62
7
10
59.291565719017598
20
95.079242984149374
0
VERTEX
8
Layer_1
6
CONTINUOUS
39
0.5
62
7
10
57.105132578485453
20
90.708403496733979
0
VERTEX
8
Layer_1
6
CONTINUOUS
39
0.5
62
7
10
55.879729005435649
20
91.321389398036644
0
SEQEND
0
POLYLINE
8
Layer_1
6
CONTINUOUS
39
0.5
62
7
66
1
10
0
20
0
70
129
40
0.5
41
0.5
0
VERTEX
8
Layer_1
6
CONTINUOUS
39
0.5
62
7
10
62.990233821989463
20
93.498690183360395
0
VERTEX
8
Layer_1
6
CONTINUOUS
39
0.5
62
7
10
65.176666962521608
20
97.869529670775776
0
VERTEX
8
Layer_1
6
CONTINUOUS
39
0.5
62
7
10
66.402070535571411
20
97.256543769473154
0
VERTEX
8
Layer_1
6
CONTINUOUS
39
0.5
62
7
10
64.21563739503928
20
92.885704282057816
0
VERTEX
8
Layer_1
6
CONTINUOUS
39
0.5
62
7
10
62.990233821989463
20
93.498690183360395
0
SEQEND
0
POLYLINE
8
Layer_1
6
CONTINUOUS
39
0.5
62
7
66
1
10
0
20
0
70
129
40
0.5
41
0.5
0
VERTEX
8
Layer_1
6
CONTINUOUS
39
0.5
62
7
10
70.380907513626155
20
95.949054282207584
0
VERTEX
8
Layer_1
6
CONTINUOUS
39
0.5
62
7
10
72.567340654158286
20
100.31989376962304
0
VERTEX
8
Layer_1
6
CONTINUOUS
39
0.5
62
7
10
73.792744227208075
20
99.7069078683204
0
VERTEX
8
Layer_1
6
CONTINUOUS
39
0.5
62
7
10
71.606311086675916
20
95.336068380904933
0
VERTEX
8
Layer_1
6
CONTINUOUS
39
0.5
62
7
10
70.380907513626155
20
95.949054282207584
0
SEQEND
0
POLYLINE
8
Layer_1
6
CONTINUOUS
39
0.5
62
7
66
1
10
0
20
0
70
129
40
0.5
41
0.5
0
VERTEX
8
Layer_1
6
CONTINUOUS
39
0.5
62
7
10
77.434667999007416
20
98.016419185966072
0
VERTEX
8
Layer_1
6
CONTINUOUS
39
0.5
62
7
10
79.621101139539547
20
102.38725867338155
0
VERTEX
8
Layer_1
6
CONTINUOUS
39
0.5
62
7
10
80.846504712589322
20
101.77427277207892
0
VERTEX
8
Layer_1
6
CONTINUOUS
39
0.5
62
7
10
78.660071572057205
20
97.403433284663535
0
VERTEX
8
Layer_1
6
CONTINUOUS
39
0.5
62
7
10
77.434667999007416
20
98.016419185966072
0
SEQEND
0
POLYLINE
8
Layer_1
6
CONTINUOUS
39
0.5
62
7
66
1
10
0
20
0
70
129
40
0.5
41
0.5
0
VERTEX
8
Layer_1
6
CONTINUOUS
39
0.5
62
7
10
84.685257253102634
20
100.33025162805168
0
VERTEX
8
Layer_1
6
CONTINUOUS
39
0.5
62
7
10
86.871690393634765
20
104.70109111546716
0
VERTEX
8
Layer_1
6
CONTINUOUS
39
0.5
62
7
10
88.097093966684582
20
104.08810521416444
0
VERTEX
8
Layer_1
6
CONTINUOUS
39
0.5
62
7
10
85.910660826152395
20
99.717265726749048
0
VERTEX
8
Layer_1
6
CONTINUOUS
39
0.5
62
7
10
84.685257253102634
20
100.33025162805168
0
SEQEND
0
POLYLINE
8
Layer_1
6
CONTINUOUS
39
0.5
62
7
66
1
10
0
20
0
70
129
40
0.5
41
0.5
0
VERTEX
8
Layer_1
6
CONTINUOUS
39
0.5
62
7
10
91.519145975353268
20
102.51110519415519
0
VERTEX
8
Layer_1
6
CONTINUOUS
39
0.5
62
7
10
93.705579115885399
20
106.88194468157064
0
VERTEX
8
Layer_1
6
CONTINUOUS
39
0.5
62
7
10
94.930982688935245
20
106.26895878026805
0
VERTEX
8
Layer_1
6
CONTINUOUS
39
0.5
62
7
10
92.744549548403086
20
101.89811929285256
0
VERTEX
8
Layer_1
6
CONTINUOUS
39
0.5
62
7
10
91.519145975353268
20
102.51110519415519
0
SEQEND
0
POLYLINE
8
Layer_1
6
CONTINUOUS
39
0.5
62
7
66
1
10
0
20
0
70
129
40
0.5
41
0.5
0
VERTEX
8
Layer_1
6
CONTINUOUS
39
0.5
62
7
10
43.812994983652999
20
79.368356337404379
0
VERTEX
8
Layer_1
6
CONTINUOUS
39
0.5
62
7
10
45.99942812418513
20
83.739195824819745
0
VERTEX
8
Layer_1
6
CONTINUOUS
39
0.5
62
7
10
47.224831697234904
20
83.126209923517109
0
VERTEX
8
Layer_1
6
CONTINUOUS
39
0.5
62
7
10
45.038398556702759
20
78.755370436101742
0
VERTEX
8
Layer_1
6
CONTINUOUS
39
0.5
62
7
10
43.812994983652999
20
79.368356337404379
0
SEQEND
0
POLYLINE
8
Layer_1
6
CONTINUOUS
39
0.5
62
7
66
1
10
0
20
0
70
129
40
0.5
41
0.5
0
VERTEX
8
Layer_1
6
CONTINUOUS
39
0.5
62
7
10
50.655679936365857
20
81.778555073829082
0
VERTEX
8
Layer_1
6
CONTINUOUS
39
0.5
62
7
10
52.842113076897981
20
86.149394561244478
0
VERTEX
8
Layer_1
6
CONTINUOUS
39
0.5
62
7
10
54.06751664994777
20
85.536408659941856
0
VERTEX
8
Layer_1
6
CONTINUOUS
39
0.5
62
7
10
51.881083509415653
20
81.165569172526403
0
VERTEX
8
Layer_1
6
CONTINUOUS
39
0.5
62
7
10
50.655679936365857
20
81.778555073829082
0
SEQEND
0
POLYLINE
8
Layer_1
6
CONTINUOUS
39
0.5
62
7
66
1
10
0
20
0
70
129
40
0.5
41
0.5
0
VERTEX
8
Layer_1
6
CONTINUOUS
39
0.5
62
7
10
58.103097959175059
20
84.338855054241549
0
VERTEX
8
Layer_1
6
CONTINUOUS
39
0.5
62
7
10
60.289531099707148
20
88.709694541656944
0
VERTEX
8
Layer_1
6
CONTINUOUS
39
0.5
62
7
10
61.514934672756965
20
88.096708640354365
0
VERTEX
8
Layer_1
6
CONTINUOUS
39
0.5
62
7
10
59.328501532224863
20
83.725869152938941
0
VERTEX
8
Layer_1
6
CONTINUOUS
39
0.5
62
7
10
58.103097959175059
20
84.338855054241549
0
SEQEND
0
POLYLINE
8
Layer_1
6
CONTINUOUS
39
0.5
62
7
66
1
10
0
20
0
70
129
40
0.5
41
0.5
0
VERTEX
8
Layer_1
6
CONTINUOUS
39
0.5
62
7
10
65.213602775728845
20
86.516155839565357
0
VERTEX
8
Layer_1
6
CONTINUOUS
39
0.5
62
7
10
67.400035916260975
20
90.886995326980696
0
VERTEX
8
Layer_1
6
CONTINUOUS
39
0.5
62
7
10
68.625439489310807
20
90.274009425678088
0
VERTEX
8
Layer_1
6
CONTINUOUS
39
0.5
62
7
10
66.439006348778648
20
85.903169938262721
0
VERTEX
8
Layer_1
6
CONTINUOUS
39
0.5
62
7
10
65.213602775728845
20
86.516155839565357
0
SEQEND
0
POLYLINE
8
Layer_1
6
CONTINUOUS
39
0.5
62
7
66
1
10
0
20
0
70
129
40
0.5
41
0.5
0
VERTEX
8
Layer_1
6
CONTINUOUS
39
0.5
62
7
10
72.604276467365509
20
88.966519938412574
0
VERTEX
8
Layer_1
6
CONTINUOUS
39
0.5
62
7
10
74.790709607897611
20
93.337359425827941
0
VERTEX
8
Layer_1
6
CONTINUOUS
39
0.5
62
7
10
76.016113180947471
20
92.724373524525305
0
VERTEX
8
Layer_1
6
CONTINUOUS
39
0.5
62
7
10
73.829680040415283
20
88.353534037109938
0
VERTEX
8
Layer_1
6
CONTINUOUS
39
0.5
62
7
10
72.604276467365509
20
88.966519938412574
0
SEQEND
0
POLYLINE
8
Layer_1
6
CONTINUOUS
39
0.5
62
7
66
1
10
0
20
0
70
129
40
0.5
41
0.5
0
VERTEX
8
Layer_1
6
CONTINUOUS
39
0.5
62
7
10
79.65803695274677
20
91.033884842171091
0
VERTEX
8
Layer_1
6
CONTINUOUS
39
0.5
62
7
10
81.8444700932789
20
95.404724329586486
0
VERTEX
8
Layer_1
6
CONTINUOUS
39
0.5
62
7
10
83.069873666328704
20
94.79173842828385
0
VERTEX
8
Layer_1
6
CONTINUOUS
39
0.5
62
7
10
80.883440525796559
20
90.420898940868469
0
VERTEX
8
Layer_1
6
CONTINUOUS
39
0.5
62
7
10
79.65803695274677
20
91.033884842171091
0
SEQEND
0
POLYLINE
8
Layer_1
6
CONTINUOUS
39
0.5
62
7
66
1
10
0
20
0
70
129
40
0.5
41
0.5
0
VERTEX
8
Layer_1
6
CONTINUOUS
39
0.5
62
7
10
86.908626206841987
20
93.347717284256532
0
VERTEX
8
Layer_1
6
CONTINUOUS
39
0.5
62
7
10
89.095059347374089
20
97.718556771672041
0
VERTEX
8
Layer_1
6
CONTINUOUS
39
0.5
62
7
10
90.320462920423978
20
97.105570870369405
0
VERTEX
8
Layer_1
6
CONTINUOUS
39
0.5
62
7
10
88.13402977989179
20
92.734731382953925
0
VERTEX
8
Layer_1
6
CONTINUOUS
39
0.5
62
7
10
86.908626206841987
20
93.347717284256532
0
SEQEND
0
POLYLINE
8
Layer_1
6
CONTINUOUS
39
0.5
62
7
66
1
10
0
20
0
70
129
40
0.5
41
0.5
0
VERTEX
8
Layer_1
6
CONTINUOUS
39
0.5
62
7
10
93.742514929092664
20
95.528570850360154
0
VERTEX
8
Layer_1
6
CONTINUOUS
39
0.5
62
7
10
95.928948069624809
20
99.899410337775564
0
VERTEX
8
Layer_1
6
CONTINUOUS
39
0.5
62
7
10
97.15435164267457
20
99.286424436472956
0
VERTEX
8
Layer_1
6
CONTINUOUS
39
0.5
62
7
10
94.967918502142467
20
94.91558494905756
0
VERTEX
8
Layer_1
6
CONTINUOUS
39
0.5
62
7
10
93.742514929092664
20
95.528570850360154
0
SEQEND
0
LINE
8
Layer_1
6
CONTINUOUS
39
0.5
62
7
10
187.16177681894794
20
106.84293065847913
11
168.91671193995799
21
164.01538141409236
0
LINE
8
Layer_1
6
CONTINUOUS
39
0.5
62
7
10
206.63505351778025
20
211.18489580341748
11
204
21
211.13170953905629
0
LINE
8
Layer_1
6
CONTINUOUS
39
0.5
62
7
10
162.17827797911545
20
210.28757443954663
11
158.15577171301859
21
210.20638364770127
0
LINE
8
Layer_1
6
CONTINUOUS
39
0.5
62
7
10
204.35081913373267
20
280.32403675653489
11
204
21
280.32785897210147
0
LINE
8
Layer_1
6
CONTINUOUS
39
0.5
62
7
10
206.64833097236723
20
210.82148867299424
11
206.63505351778025
21
211.18489580341748
0
LINE
8
Layer_1
6
CONTINUOUS
39
0.5
62
7
10
204.11620773723507
20
280.12631157627044
11
204.08018653261908
21
281.11222062368176
0
LINE
8
Layer_1
6
CONTINUOUS
39
0.5
62
7
10
206.08684728963019
20
210.80738492820905
11
206.64833097236723
21
210.82148867299424
0
LINE
8
Layer_1
6
CONTINUOUS
39
0.5
62
7
10
110.34733718467201
20
79.974369640256384
11
189.33309317556171
21
105.1805698909665
0
POLYLINE
8
Layer_1
6
CONTINUOUS
39
0.5
62
7
66
1
10
0
20
0
70
129
40
0.5
41
0.5
0
VERTEX
8
Layer_1
6
CONTINUOUS
39
0.5
62
7
10
39.376462824687685
20
93.810797305911379
0
VERTEX
8
Layer_1
6
CONTINUOUS
39
0.5
62
7
10
41.562895965219788
20
98.181636793326874
0
VERTEX
8
Layer_1
6
CONTINUOUS
39
0.5
62
7
10
42.788299538269655
20
97.568650892024209
0
VERTEX
8
Layer_1
6
CONTINUOUS
39
0.5
62
7
10
40.601866397737446
20
93.197811404608757
0
VERTEX
8
Layer_1
6
CONTINUOUS
39
0.5
62
7
10
39.376462824687685
20
93.810797305911379
0
SEQEND
0
POLYLINE
8
Layer_1
6
CONTINUOUS
39
0.5
62
7
66
1
10
0
20
0
70
129
40
0.5
41
0.5
0
VERTEX
8
Layer_1
6
CONTINUOUS
39
0.5
62
7
10
46.219147777400536
20
96.220996042336111
0
VERTEX
8
Layer_1
6
CONTINUOUS
39
0.5
62
7
10
48.405580917932653
20
100.59183552975152
0
VERTEX
8
Layer_1
6
CONTINUOUS
39
0.5
62
7
10
49.630984490982463
20
99.978849628448899
0
VERTEX
8
Layer_1
6
CONTINUOUS
39
0.5
62
7
10
47.444551350450332
20
95.608010141033503
0
VERTEX
8
Layer_1
6
CONTINUOUS
39
0.5
62
7
10
46.219147777400536
20
96.220996042336111
0
SEQEND
0
POLYLINE
8
Layer_1
6
CONTINUOUS
39
0.5
62
7
66
1
10
0
20
0
70
129
40
0.5
41
0.5
0
VERTEX
8
Layer_1
6
CONTINUOUS
39
0.5
62
7
10
53.666565800209725
20
98.781296022748592
0
VERTEX
8
Layer_1
6
CONTINUOUS
39
0.5
62
7
10
55.852998940741877
20
103.15213551016402
0
VERTEX
8
Layer_1
6
CONTINUOUS
39
0.5
62
7
10
57.078402513791701
20
102.53914960886138
0
VERTEX
8
Layer_1
6
CONTINUOUS
39
0.5
62
7
10
54.891969373259542
20
98.168310121445927
0
VERTEX
8
Layer_1
6
CONTINUOUS
39
0.5
62
7
10
53.666565800209725
20
98.781296022748592
0
SEQEND
0
POLYLINE
8
Layer_1
6
CONTINUOUS
39
0.5
62
7
66
1
10
0
20
0
70
129
40
0.5
41
0.5
0
VERTEX
8
Layer_1
6
CONTINUOUS
39
0.5
62
7
10
60.777070616763567
20
100.9585968080724
0
VERTEX
8
Layer_1
6
CONTINUOUS
39
0.5
62
7
10
62.963503757295697
20
105.32943629548781
0
VERTEX
8
Layer_1
6
CONTINUOUS
39
0.5
62
7
10
64.188907330345458
20
104.71645039418516
0
VERTEX
8
Layer_1
6
CONTINUOUS
39
0.5
62
7
10
62.002474189813341
20
100.34561090676971
0
VERTEX
8
Layer_1
6
CONTINUOUS
39
0.5
62
7
10
60.777070616763567
20
100.9585968080724
0
SEQEND
0
POLYLINE
8
Layer_1
6
CONTINUOUS
39
0.5
62
7
66
1
10
0
20
0
70
129
40
0.5
41
0.5
0
VERTEX
8
Layer_1
6
CONTINUOUS
39
0.5
62
7
10
68.167744308400202
20
103.40896090691962
0
VERTEX
8
Layer_1
6
CONTINUOUS
39
0.5
62
7
10
70.354177448932361
20
107.77980039433501
0
VERTEX
8
Layer_1
6
CONTINUOUS
39
0.5
62
7
10
71.579581021982136
20
107.1668144930324
0
VERTEX
8
Layer_1
6
CONTINUOUS
39
0.5
62
7
10
69.393147881450034
20
102.79597500561692
0
VERTEX
8
Layer_1
6
CONTINUOUS
39
0.5
62
7
10
68.167744308400202
20
103.40896090691962
0
SEQEND
0
POLYLINE
8
Layer_1
6
CONTINUOUS
39
0.5
62
7
66
1
10
0
20
0
70
129
40
0.5
41
0.5
0
VERTEX
8
Layer_1
6
CONTINUOUS
39
0.5
62
7
10
75.221504793781463
20
105.47632581067812
0
VERTEX
8
Layer_1
6
CONTINUOUS
39
0.5
62
7
10
77.407937934313637
20
109.84716529809359
0
VERTEX
8
Layer_1
6
CONTINUOUS
39
0.5
62
7
10
78.633341507363411
20
109.23417939679092
0
VERTEX
8
Layer_1
6
CONTINUOUS
39
0.5
62
7
10
76.446908366831281
20
104.86333990937554
0
VERTEX
8
Layer_1
6
CONTINUOUS
39
0.5
62
7
10
75.221504793781463
20
105.47632581067812
0
SEQEND
0
POLYLINE
8
Layer_1
6
CONTINUOUS
39
0.5
62
7
66
1
10
0
20
0
70
129
40
0.5
41
0.5
0
VERTEX
8
Layer_1
6
CONTINUOUS
39
0.5
62
7
10
82.472094047876666
20
107.79015825276366
0
VERTEX
8
Layer_1
6
CONTINUOUS
39
0.5
62
7
10
84.658527188408854
20
112.160997740179
0
VERTEX
8
Layer_1
6
CONTINUOUS
39
0.5
62
7
10
85.883930761458601
20
111.54801183887645
0
VERTEX
8
Layer_1
6
CONTINUOUS
39
0.5
62
7
10
83.697497620926498
20
107.17717235146097
0
VERTEX
8
Layer_1
6
CONTINUOUS
39
0.5
62
7
10
82.472094047876666
20
107.79015825276366
0
SEQEND
0
POLYLINE
8
Layer_1
6
CONTINUOUS
39
0.5
62
7
66
1
10
0
20
0
70
129
40
0.5
41
0.5
0
VERTEX
8
Layer_1
6
CONTINUOUS
39
0.5
62
7
10
89.305982770127343
20
109.9710118188672
0
VERTEX
8
Layer_1
6
CONTINUOUS
39
0.5
62
7
10
91.492415910659531
20
114.34185130628263
0
VERTEX
8
Layer_1
6
CONTINUOUS
39
0.5
62
7
10
92.71781948370932
20
113.72886540498003
0
VERTEX
8
Layer_1
6
CONTINUOUS
39
0.5
62
7
10
90.531386343177161
20
109.35802591756458
0
VERTEX
8
Layer_1
6
CONTINUOUS
39
0.5
62
7
10
89.305982770127343
20
109.9710118188672
0
SEQEND
0
POLYLINE
8
Layer_1
6
CONTINUOUS
39
0.5
62
7
66
1
10
0
20
0
70
129
40
0.5
41
0.5
0
VERTEX
8
Layer_1
6
CONTINUOUS
39
0.5
62
7
10
36.991345414986853
20
100.50593422170284
0
VERTEX
8
Layer_1
6
CONTINUOUS
39
0.5
62
7
10
39.177778555519033
20
104.87677370911825
0
VERTEX
8
Layer_1
6
CONTINUOUS
39
0.5
62
7
10
40.403182128568858
20
104.26378780781567
0
VERTEX
8
Layer_1
6
CONTINUOUS
39
0.5
62
7
10
38.216748988036692
20
99.892948320400222
0
VERTEX
8
Layer_1
6
CONTINUOUS
39
0.5
62
7
10
36.991345414986853
20
100.50593422170284
0
SEQEND
0
POLYLINE
8
Layer_1
6
CONTINUOUS
39
0.5
62
7
66
1
10
0
20
0
70
129
40
0.5
41
0.5
0
VERTEX
8
Layer_1
6
CONTINUOUS
39
0.5
62
7
10
43.834030367699746
20
102.9161329581276
0
VERTEX
8
Layer_1
6
CONTINUOUS
39
0.5
62
7
10
46.02046350823192
20
107.286972445543
0
VERTEX
8
Layer_1
6
CONTINUOUS
39
0.5
62
7
10
47.245867081281673
20
106.67398654424039
0
VERTEX
8
Layer_1
6
CONTINUOUS
39
0.5
62
7
10
45.059433940749571
20
102.30314705682497
0
VERTEX
8
Layer_1
6
CONTINUOUS
39
0.5
62
7
10
43.834030367699746
20
102.9161329581276
0
SEQEND
0
POLYLINE
8
Layer_1
6
CONTINUOUS
39
0.5
62
7
66
1
10
0
20
0
70
129
40
0.5
41
0.5
0
VERTEX
8
Layer_1
6
CONTINUOUS
39
0.5
62
7
10
51.281448390508935
20
105.47643293854006
0
VERTEX
8
Layer_1
6
CONTINUOUS
39
0.5
62
7
10
53.467881531041108
20
109.84727242595548
0
VERTEX
8
Layer_1
6
CONTINUOUS
39
0.5
62
7
10
54.693285104090883
20
109.23428652465287
0
VERTEX
8
Layer_1
6
CONTINUOUS
39
0.5
62
7
10
52.506851963558759
20
104.86344703723739
0
VERTEX
8
Layer_1
6
CONTINUOUS
39
0.5
62
7
10
51.281448390508935
20
105.47643293854006
0
SEQEND
0
POLYLINE
8
Layer_1
6
CONTINUOUS
39
0.5
62
7
66
1
10
0
20
0
70
129
40
0.5
41
0.5
0
VERTEX
8
Layer_1
6
CONTINUOUS
39
0.5
62
7
10
58.391953207062805
20
107.65373372386384
0
VERTEX
8
Layer_1
6
CONTINUOUS
39
0.5
62
7
10
60.578386347594915
20
112.02457321127926
0
VERTEX
8
Layer_1
6
CONTINUOUS
39
0.5
62
7
10
61.803789920644697
20
111.41158730997657
0
VERTEX
8
Layer_1
6
CONTINUOUS
39
0.5
62
7
10
59.617356780112544
20
107.04074782256117
0
VERTEX
8
Layer_1
6
CONTINUOUS
39
0.5
62
7
10
58.391953207062805
20
107.65373372386384
0
SEQEND
0
POLYLINE
8
Layer_1
6
CONTINUOUS
39
0.5
62
7
66
1
10
0
20
0
70
129
40
0.5
41
0.5
0
VERTEX
8
Layer_1
6
CONTINUOUS
39
0.5
62
7
10
65.782626898699391
20
110.10409782271107
0
VERTEX
8
Layer_1
6
CONTINUOUS
39
0.5
62
7
10
67.969060039231593
20
114.47493731012653
0
VERTEX
8
Layer_1
6
CONTINUOUS
39
0.5
62
7
10
69.194463612281382
20
113.86195140882386
0
VERTEX
8
Layer_1
6
CONTINUOUS
39
0.5
62
7
10
67.008030471749251
20
109.49111192140842
0
VERTEX
8
Layer_1
6
CONTINUOUS
39
0.5
62
7
10
65.782626898699391
20
110.10409782271107
0
SEQEND
0
POLYLINE
8
Layer_1
6
CONTINUOUS
39
0.5
62
7
66
1
10
0
20
0
70
129
40
0.5
41
0.5
0
VERTEX
8
Layer_1
6
CONTINUOUS
39
0.5
62
7
10
72.83638738408068
20
112.17146272646958
0
VERTEX
8
Layer_1
6
CONTINUOUS
39
0.5
62
7
10
75.022820524612868
20
116.54230221388499
0
VERTEX
8
Layer_1
6
CONTINUOUS
39
0.5
62
7
10
76.248224097662629
20
115.92931631258237
0
VERTEX
8
Layer_1
6
CONTINUOUS
39
0.5
62
7
10
74.061790957130484
20
111.55847682516691
0
VERTEX
8
Layer_1
6
CONTINUOUS
39
0.5
62
7
10
72.83638738408068
20
112.17146272646958
0
SEQEND
0
POLYLINE
8
Layer_1
6
CONTINUOUS
39
0.5
62
7
66
1
10
0
20
0
70
129
40
0.5
41
0.5
0
VERTEX
8
Layer_1
6
CONTINUOUS
39
0.5
62
7
10
80.086976638175926
20
114.4852951685551
0
VERTEX
8
Layer_1
6
CONTINUOUS
39
0.5
62
7
10
82.273409778708029
20
118.85613465597054
0
VERTEX
8
Layer_1
6
CONTINUOUS
39
0.5
62
7
10
83.498813351757818
20
118.2431487546679
0
VERTEX
8
Layer_1
6
CONTINUOUS
39
0.5
62
7
10
81.312380211225715
20
113.8723092672525
0
VERTEX
8
Layer_1
6
CONTINUOUS
39
0.5
62
7
10
80.086976638175926
20
114.4852951685551
0
SEQEND
0
POLYLINE
8
Layer_1
6
CONTINUOUS
39
0.5
62
7
66
1
10
0
20
0
70
129
40
0.5
41
0.5
0
VERTEX
8
Layer_1
6
CONTINUOUS
39
0.5
62
7
10
86.920865360426561
20
116.66614873465869
0
VERTEX
8
Layer_1
6
CONTINUOUS
39
0.5
62
7
10
89.10729850095872
20
121.0369882220741
0
VERTEX
8
Layer_1
6
CONTINUOUS
39
0.5
62
7
10
90.332702074008495
20
120.42400232077144
0
VERTEX
8
Layer_1
6
CONTINUOUS
39
0.5
62
7
10
88.146268933476392
20
116.05316283335603
0
VERTEX
8
Layer_1
6
CONTINUOUS
39
0.5
62
7
10
86.920865360426561
20
116.66614873465869
0
SEQEND
0
POLYLINE
8
Layer_1
6
CONTINUOUS
39
0.5
62
7
66
1
10
0
20
0
70
129
40
0.5
41
0.5
0
VERTEX
8
Layer_1
6
CONTINUOUS
39
0.5
62
7
10
34.687828953269452
20
107.72419748060423
0
VERTEX
8
Layer_1
6
CONTINUOUS
39
0.5
62
7
10
36.874262093801619
20
112.09503696801974
0
VERTEX
8
Layer_1
6
CONTINUOUS
39
0.5
62
7
10
38.099665666851394
20
111.48205106671702
0
VERTEX
8
Layer_1
6
CONTINUOUS
39
0.5
62
7
10
35.913232526319248
20
107.11121157930162
0
VERTEX
8
Layer_1
6
CONTINUOUS
39
0.5
62
7
10
34.687828953269452
20
107.72419748060423
0
SEQEND
0
POLYLINE
8
Layer_1
6
CONTINUOUS
39
0.5
62
7
66
1
10
0
20
0
70
129
40
0.5
41
0.5
0
VERTEX
8
Layer_1
6
CONTINUOUS
39
0.5
62
7
10
41.530513905982346
20
110.13439621702898
0
VERTEX
8
Layer_1
6
CONTINUOUS
39
0.5
62
7
10
43.716947046514449
20
114.50523570444446
0
VERTEX
8
Layer_1
6
CONTINUOUS
39
0.5
62
7
10
44.942350619564287
20
113.89224980314179
0
VERTEX
8
Layer_1
6
CONTINUOUS
39
0.5
62
7
10
42.755917479032078
20
109.52141031572636
0
VERTEX
8
Layer_1
6
CONTINUOUS
39
0.5
62
7
10
41.530513905982346
20
110.13439621702898
0
SEQEND
0
POLYLINE
8
Layer_1
6
CONTINUOUS
39
0.5
62
7
66
1
10
0
20
0
70
129
40
0.5
41
0.5
0
VERTEX
8
Layer_1
6
CONTINUOUS
39
0.5
62
7
10
48.977931928791534
20
112.69469619744149
0
VERTEX
8
Layer_1
6
CONTINUOUS
39
0.5
62
7
10
51.164365069323651
20
117.06553568485691
0
VERTEX
8
Layer_1
6
CONTINUOUS
39
0.5
62
7
10
52.389768642373411
20
116.4525497835543
0
VERTEX
8
Layer_1
6
CONTINUOUS
39
0.5
62
7
10
50.203335501841266
20
112.08171029613895
0
VERTEX
8
Layer_1
6
CONTINUOUS
39
0.5
62
7
10
48.977931928791534
20
112.69469619744149
0
SEQEND
0
POLYLINE
8
Layer_1
6
CONTINUOUS
39
0.5
62
7
66
1
10
0
20
0
70
129
40
0.5
41
0.5
0
VERTEX
8
Layer_1
6
CONTINUOUS
39
0.5
62
7
10
56.088436745345312
20
114.8719969827653
0
VERTEX
8
Layer_1
6
CONTINUOUS
39
0.5
62
7
10
58.274869885877472
20
119.24283647018071
0
VERTEX
8
Layer_1
6
CONTINUOUS
39
0.5
62
7
10
59.500273458927289
20
118.62985056887811
0
VERTEX
8
Layer_1
6
CONTINUOUS
39
0.5
62
7
10
57.313840318395101
20
114.25901108146265
0
VERTEX
8
Layer_1
6
CONTINUOUS
39
0.5
62
7
10
56.088436745345312
20
114.8719969827653
0
SEQEND
0
POLYLINE
8
Layer_1
6
CONTINUOUS
39
0.5
62
7
66
1
10
0
20
0
70
129
40
0.5
41
0.5
0
VERTEX
8
Layer_1
6
CONTINUOUS
39
0.5
62
7
10
63.479110436981941
20
117.32236108161256
0
VERTEX
8
Layer_1
6
CONTINUOUS
39
0.5
62
7
10
65.665543577514114
20
121.69320056902789
0
VERTEX
8
Layer_1
6
CONTINUOUS
39
0.5
62
7
10
66.890947150563889
20
121.08021466772533
0
VERTEX
8
Layer_1
6
CONTINUOUS
39
0.5
62
7
10
64.704514010031772
20
116.70937518030985
0
VERTEX
8
Layer_1
6
CONTINUOUS
39
0.5
62
7
10
63.479110436981941
20
117.32236108161256
0
SEQEND
0
POLYLINE
8
Layer_1
6
CONTINUOUS
39
0.5
62
7
66
1
10
0
20
0
70
129
40
0.5
41
0.5
0
VERTEX
8
Layer_1
6
CONTINUOUS
39
0.5
62
7
10
70.532870922363259
20
119.38972598537104
0
VERTEX
8
Layer_1
6
CONTINUOUS
39
0.5
62
7
10
72.719304062895375
20
123.7605654727865
0
VERTEX
8
Layer_1
6
CONTINUOUS
39
0.5
62
7
10
73.944707635945193
20
123.14757957148376
0
VERTEX
8
Layer_1
6
CONTINUOUS
39
0.5
62
7
10
71.758274495413033
20
118.77674008406839
0
VERTEX
8
Layer_1
6
CONTINUOUS
39
0.5
62
7
10
70.532870922363259
20
119.38972598537104
0
SEQEND
0
POLYLINE
8
Layer_1
6
CONTINUOUS
39
0.5
62
7
66
1
10
0
20
0
70
129
40
0.5
41
0.5
0
VERTEX
8
Layer_1
6
CONTINUOUS
39
0.5
62
7
10
77.783460176458462
20
121.70355842745653
0
VERTEX
8
Layer_1
6
CONTINUOUS
39
0.5
62
7
10
79.969893316990593
20
126.07439791487204
0
VERTEX
8
Layer_1
6
CONTINUOUS
39
0.5
62
7
10
81.195296890040396
20
125.46141201356927
0
VERTEX
8
Layer_1
6
CONTINUOUS
39
0.5
62
7
10
79.008863749508237
20
121.09057252615392
0
VERTEX
8
Layer_1
6
CONTINUOUS
39
0.5
62
7
10
77.783460176458462
20
121.70355842745653
0
SEQEND
0
POLYLINE
8
Layer_1
6
CONTINUOUS
39
0.5
62
7
66
1
10
0
20
0
70
129
40
0.5
41
0.5
0
VERTEX
8
Layer_1
6
CONTINUOUS
39
0.5
62
7
10
84.61734889870911
20
123.88441199356009
0
VERTEX
8
Layer_1
6
CONTINUOUS
39
0.5
62
7
10
86.80378203924127
20
128.25525148097555
0
VERTEX
8
Layer_1
6
CONTINUOUS
39
0.5
62
7
10
88.029185612291101
20
127.64226557967282
0
VERTEX
8
Layer_1
6
CONTINUOUS
39
0.5
62
7
10
85.842752471758928
20
123.27142609225749
0
VERTEX
8
Layer_1
6
CONTINUOUS
39
0.5
62
7
10
84.61734889870911
20
123.88441199356009
0
SEQEND
0
POLYLINE
8
Layer_1
6
CONTINUOUS
39
0.5
62
7
66
1
10
0
20
0
70
129
40
0.5
41
0.5
0
VERTEX
8
Layer_1
6
CONTINUOUS
39
0.5
62
7
10
32.609883218392639
20
115.01444562893438
0
VERTEX
8
Layer_1
6
CONTINUOUS
39
0.5
62
7
10
34.79631635892482
20
119.38528511634986
0
VERTEX
8
Layer_1
6
CONTINUOUS
39
0.5
62
7
10
36.02171993197458
20
118.77229921504716
0
VERTEX
8
Layer_1
6
CONTINUOUS
39
0.5
62
7
10
33.835286791442464
20
114.40145972763182
0
VERTEX
8
Layer_1
6
CONTINUOUS
39
0.5
62
7
10
32.609883218392639
20
115.01444562893438
0
SEQEND
0
POLYLINE
8
Layer_1
6
CONTINUOUS
39
0.5
62
7
66
1
10
0
20
0
70
129
40
0.5
41
0.5
0
VERTEX
8
Layer_1
6
CONTINUOUS
39
0.5
62
7
10
39.452568171105533
20
117.42464436535923
0
VERTEX
8
Layer_1
6
CONTINUOUS
39
0.5
62
7
10
41.639001311637678
20
121.79548385277454
0
VERTEX
8
Layer_1
6
CONTINUOUS
39
0.5
62
7
10
42.86440488468746
20
121.1824979514719
0
VERTEX
8
Layer_1
6
CONTINUOUS
39
0.5
62
7
10
40.677971744155336
20
116.81165846405645
0
VERTEX
8
Layer_1
6
CONTINUOUS
39
0.5
62
7
10
39.452568171105533
20
117.42464436535923
0
SEQEND
0
POLYLINE
8
Layer_1
6
CONTINUOUS
39
0.5
62
7
66
1
10
0
20
0
70
129
40
0.5
41
0.5
0
VERTEX
8
Layer_1
6
CONTINUOUS
39
0.5
62
7
10
46.899986193914728
20
119.98494434577157
0
VERTEX
8
Layer_1
6
CONTINUOUS
39
0.5
62
7
10
49.086419334446887
20
124.35578383318706
0
VERTEX
8
Layer_1
6
CONTINUOUS
39
0.5
62
7
10
50.311822907496634
20
123.74279793188445
0
VERTEX
8
Layer_1
6
CONTINUOUS
39
0.5
62
7
10
48.125389766964517
20
119.37195844446896
0
VERTEX
8
Layer_1
6
CONTINUOUS
39
0.5
62
7
10
46.899986193914728
20
119.98494434577157
0
SEQEND
0
POLYLINE
8
Layer_1
6
CONTINUOUS
39
0.5
62
7
66
1
10
0
20
0
70
129
40
0.5
41
0.5
0
VERTEX
8
Layer_1
6
CONTINUOUS
39
0.5
62
7
10
54.010491010468535
20
122.16224513109537
0
VERTEX
8
Layer_1
6
CONTINUOUS
39
0.5
62
7
10
56.196924151000658
20
126.53308461851083
0
VERTEX
8
Layer_1
6
CONTINUOUS
39
0.5
62
7
10
57.422327724050476
20
125.92009871720816
0
VERTEX
8
Layer_1
6
CONTINUOUS
39
0.5
62
7
10
55.235894583518331
20
121.5492592297927
0
VERTEX
8
Layer_1
6
CONTINUOUS
39
0.5
62
7
10
54.010491010468535
20
122.16224513109537
0
SEQEND
0
POLYLINE
8
Layer_1
6
CONTINUOUS
39
0.5
62
7
66
1
10
0
20
0
70
129
40
0.5
41
0.5
0
VERTEX
8
Layer_1
6
CONTINUOUS
39
0.5
62
7
10
61.401164702105184
20
124.61260922994259
0
VERTEX
8
Layer_1
6
CONTINUOUS
39
0.5
62
7
10
63.587597842637336
20
128.9834487173581
0
VERTEX
8
Layer_1
6
CONTINUOUS
39
0.5
62
7
10
64.813001415687083
20
128.37046281605544
0
VERTEX
8
Layer_1
6
CONTINUOUS
39
0.5
62
7
10
62.626568275154973
20
123.99962332864004
0
VERTEX
8
Layer_1
6
CONTINUOUS
39
0.5
62
7
10
61.401164702105184
20
124.61260922994259
0
SEQEND
0
POLYLINE
8
Layer_1
6
CONTINUOUS
39
0.5
62
7
66
1
10
0
20
0
70
129
40
0.5
41
0.5
0
VERTEX
8
Layer_1
6
CONTINUOUS
39
0.5
62
7
10
68.454925187486438
20
126.67997413370112
0
VERTEX
8
Layer_1
6
CONTINUOUS
39
0.5
62
7
10
70.641358328018597
20
131.05081362111656
0
VERTEX
8
Layer_1
6
CONTINUOUS
39
0.5
62
7
10
71.866761901068401
20
130.4378277198139
0
VERTEX
8
Layer_1
6
CONTINUOUS
39
0.5
62
7
10
69.680328760536256
20
126.0669882323985
0
VERTEX
8
Layer_1
6
CONTINUOUS
39
0.5
62
7
10
68.454925187486438
20
126.67997413370112
0
SEQEND
0
POLYLINE
8
Layer_1
6
CONTINUOUS
39
0.5
62
7
66
1
10
0
20
0
70
129
40
0.5
41
0.5
0
VERTEX
8
Layer_1
6
CONTINUOUS
39
0.5
62
7
10
75.705514441581656
20
128.99380657578672
0
VERTEX
8
Layer_1
6
CONTINUOUS
39
0.5
62
7
10
77.891947582113801
20
133.36464606320206
0
VERTEX
8
Layer_1
6
CONTINUOUS
39
0.5
62
7
10
79.117351155163618
20
132.75166016189945
0
VERTEX
8
Layer_1
6
CONTINUOUS
39
0.5
62
7
10
76.930918014631487
20
128.38082067448403
0
VERTEX
8
Layer_1
6
CONTINUOUS
39
0.5
62
7
10
75.705514441581656
20
128.99380657578672
0
SEQEND
0
POLYLINE
8
Layer_1
6
CONTINUOUS
39
0.5
62
7
66
1
10
0
20
0
70
129
40
0.5
41
0.5
0
VERTEX
8
Layer_1
6
CONTINUOUS
39
0.5
62
7
10
82.539403163832347
20
131.17466014189014
0
VERTEX
8
Layer_1
6
CONTINUOUS
39
0.5
62
7
10
84.725836304364449
20
135.54549962930571
0
VERTEX
8
Layer_1
6
CONTINUOUS
39
0.5
62
7
10
85.951239877414295
20
134.93251372800302
0
VERTEX
8
Layer_1
6
CONTINUOUS
39
0.5
62
7
10
83.764806736882164
20
130.56167424058762
0
VERTEX
8
Layer_1
6
CONTINUOUS
39
0.5
62
7
10
82.539403163832347
20
131.17466014189014
0
SEQEND
0
POLYLINE
8
Layer_1
6
CONTINUOUS
39
0.5
62
7
66
1
10
0
20
0
70
129
40
0.5
41
0.5
0
VERTEX
8
Layer_1
6
CONTINUOUS
39
0.5
62
7
10
46.133426372428048
20
71.858451912937682
0
VERTEX
8
Layer_1
6
CONTINUOUS
39
0.5
62
7
10
48.319859512960221
20
76.229291400353063
0
VERTEX
8
Layer_1
6
CONTINUOUS
39
0.5
62
7
10
49.545263086009967
20
75.616305499050469
0
VERTEX
8
Layer_1
6
CONTINUOUS
39
0.5
62
7
10
47.358829945477851
20
71.245466011635088
0
VERTEX
8
Layer_1
6
CONTINUOUS
39
0.5
62
7
10
46.133426372428048
20
71.858451912937682
0
SEQEND
0
POLYLINE
8
Layer_1
6
CONTINUOUS
39
0.5
62
7
66
1
10
0
20
0
70
129
40
0.5
41
0.5
0
VERTEX
8
Layer_1
6
CONTINUOUS
39
0.5
62
7
10
52.976111325140955
20
74.268650649362414
0
VERTEX
8
Layer_1
6
CONTINUOUS
39
0.5
62
7
10
55.162544465673029
20
78.639490136777809
0
VERTEX
8
Layer_1
6
CONTINUOUS
39
0.5
62
7
10
56.387948038722847
20
78.02650423547523
0
VERTEX
8
Layer_1
6
CONTINUOUS
39
0.5
62
7
10
54.20151489819068
20
73.655664748059849
0
VERTEX
8
Layer_1
6
CONTINUOUS
39
0.5
62
7
10
52.976111325140955
20
74.268650649362414
0
SEQEND
0
POLYLINE
8
Layer_1
6
CONTINUOUS
39
0.5
62
7
66
1
10
0
20
0
70
129
40
0.5
41
0.5
0
VERTEX
8
Layer_1
6
CONTINUOUS
39
0.5
62
7
10
60.423529347950144
20
76.828950629774923
0
VERTEX
8
Layer_1
6
CONTINUOUS
39
0.5
62
7
10
62.609962488482246
20
81.199790117190332
0
VERTEX
8
Layer_1
6
CONTINUOUS
39
0.5
62
7
10
63.835366061532028
20
80.58680421588771
0
VERTEX
8
Layer_1
6
CONTINUOUS
39
0.5
62
7
10
61.648932920999904
20
76.215964728472272
0
VERTEX
8
Layer_1
6
CONTINUOUS
39
0.5
62
7
10
60.423529347950144
20
76.828950629774923
0
SEQEND
0
POLYLINE
8
Layer_1
6
CONTINUOUS
39
0.5
62
7
66
1
10
0
20
0
70
129
40
0.5
41
0.5
0
VERTEX
8
Layer_1
6
CONTINUOUS
39
0.5
62
7
10
67.534034164503893
20
79.006251415098689
0
VERTEX
8
Layer_1
6
CONTINUOUS
39
0.5
62
7
10
69.720467305036081
20
83.37709090251407
0
VERTEX
8
Layer_1
6
CONTINUOUS
39
0.5
62
7
10
70.945870878085827
20
82.764105001211433
0
VERTEX
8
Layer_1
6
CONTINUOUS
39
0.5
62
7
10
68.759437737553696
20
78.393265513796109
0
VERTEX
8
Layer_1
6
CONTINUOUS
39
0.5
62
7
10
67.534034164503893
20
79.006251415098689
0
SEQEND
0
POLYLINE
8
Layer_1
6
CONTINUOUS
39
0.5
62
7
66
1
10
0
20
0
70
129
40
0.5
41
0.5
0
VERTEX
8
Layer_1
6
CONTINUOUS
39
0.5
62
7
10
74.924707856140571
20
81.456615513945891
0
VERTEX
8
Layer_1
6
CONTINUOUS
39
0.5
62
7
10
77.111140996672688
20
85.827455001361315
0
VERTEX
8
Layer_1
6
CONTINUOUS
39
0.5
62
7
10
78.33654456972252
20
85.214469100058679
0
VERTEX
8
Layer_1
6
CONTINUOUS
39
0.5
62
7
10
76.15011142919036
20
80.843629612643269
0
VERTEX
8
Layer_1
6
CONTINUOUS
39
0.5
62
7
10
74.924707856140571
20
81.456615513945891
0
SEQEND
0
POLYLINE
8
Layer_1
6
CONTINUOUS
39
0.5
62
7
66
1
10
0
20
0
70
129
40
0.5
41
0.5
0
VERTEX
8
Layer_1
6
CONTINUOUS
39
0.5
62
7
10
81.97846834152179
20
83.523980417704436
0
VERTEX
8
Layer_1
6
CONTINUOUS
39
0.5
62
7
10
84.164901482053992
20
87.894819905119888
0
VERTEX
8
Layer_1
6
CONTINUOUS
39
0.5
62
7
10
85.390305055103781
20
87.28183400381721
0
VERTEX
8
Layer_1
6
CONTINUOUS
39
0.5
62
7
10
83.203871914571607
20
82.910994516401857
0
VERTEX
8
Layer_1
6
CONTINUOUS
39
0.5
62
7
10
81.97846834152179
20
83.523980417704436
0
SEQEND
0
POLYLINE
8
Layer_1
6
CONTINUOUS
39
0.5
62
7
66
1
10
0
20
0
70
129
40
0.5
41
0.5
0
VERTEX
8
Layer_1
6
CONTINUOUS
39
0.5
62
7
10
89.229057595617064
20
85.837812859789949
0
VERTEX
8
Layer_1
6
CONTINUOUS
39
0.5
62
7
10
91.415490736149167
20
90.208652347205458
0
VERTEX
8
Layer_1
6
CONTINUOUS
39
0.5
62
7
10
92.640894309198956
20
89.595666445902808
0
VERTEX
8
Layer_1
6
CONTINUOUS
39
0.5
62
7
10
90.454461168666867
20
85.224826958487355
0
VERTEX
8
Layer_1
6
CONTINUOUS
39
0.5
62
7
10
89.229057595617064
20
85.837812859789949
0
SEQEND
0
POLYLINE
8
Layer_1
6
CONTINUOUS
39
0.5
62
7
66
1
10
0
20
0
70
129
40
0.5
41
0.5
0
VERTEX
8
Layer_1
6
CONTINUOUS
39
0.5
62
7
10
96.062946317867727
20
88.018666425893571
0
VERTEX
8
Layer_1
6
CONTINUOUS
39
0.5
62
7
10
98.249379458399886
20
92.389505913308966
0
VERTEX
8
Layer_1
6
CONTINUOUS
39
0.5
62
7
10
99.474783031449647
20
91.776520012006301
0
VERTEX
8
Layer_1
6
CONTINUOUS
39
0.5
62
7
10
97.28834989091753
20
87.405680524590906
0
VERTEX
8
Layer_1
6
CONTINUOUS
39
0.5
62
7
10
96.062946317867727
20
88.018666425893571
0
SEQEND
0
POLYLINE
8
Layer_1
6
CONTINUOUS
39
0.5
62
7
66
1
10
0
20
0
70
129
40
0.5
41
0.5
0
VERTEX
8
Layer_1
6
CONTINUOUS
39
0.5
62
7
10
48.590528671557493
20
64.937744270305643
0
VERTEX
8
Layer_1
6
CONTINUOUS
39
0.5
62
7
10
50.776961812089617
20
69.308583757721081
0
VERTEX
8
Layer_1
6
CONTINUOUS
39
0.5
62
7
10
52.00236538513942
20
68.695597856418402
0
VERTEX
8
Layer_1
6
CONTINUOUS
39
0.5
62
7
10
49.815932244607282
20
64.324758369002964
0
VERTEX
8
Layer_1
6
CONTINUOUS
39
0.5
62
7
10
48.590528671557493
20
64.937744270305643
0
SEQEND
0
POLYLINE
8
Layer_1
6
CONTINUOUS
39
0.5
62
7
66
1
10
0
20
0
70
129
40
0.5
41
0.5
0
VERTEX
8
Layer_1
6
CONTINUOUS
39
0.5
62
7
10
55.43321362427033
20
67.347943006730389
0
VERTEX
8
Layer_1
6
CONTINUOUS
39
0.5
62
7
10
57.619646764802496
20
71.718782494145771
0
VERTEX
8
Layer_1
6
CONTINUOUS
39
0.5
62
7
10
58.845050337852271
20
71.105796592843177
0
VERTEX
8
Layer_1
6
CONTINUOUS
39
0.5
62
7
10
56.658617197320119
20
66.734957105427696
0
VERTEX
8
Layer_1
6
CONTINUOUS
39
0.5
62
7
10
55.43321362427033
20
67.347943006730389
0
SEQEND
0
POLYLINE
8
Layer_1
6
CONTINUOUS
39
0.5
62
7
66
1
10
0
20
0
70
129
40
0.5
41
0.5
0
VERTEX
8
Layer_1
6
CONTINUOUS
39
0.5
62
7
10
62.880631647079511
20
69.908242987142827
0
VERTEX
8
Layer_1
6
CONTINUOUS
39
0.5
62
7
10
65.06706478761167
20
74.27908247455828
0
VERTEX
8
Layer_1
6
CONTINUOUS
39
0.5
62
7
10
66.292468360661488
20
73.666096573255615
0
VERTEX
8
Layer_1
6
CONTINUOUS
39
0.5
62
7
10
64.106035220129343
20
69.295257085840234
0
VERTEX
8
Layer_1
6
CONTINUOUS
39
0.5
62
7
10
62.880631647079511
20
69.908242987142827
0
SEQEND
0
POLYLINE
8
Layer_1
6
CONTINUOUS
39
0.5
62
7
66
1
10
0
20
0
70
129
40
0.5
41
0.5
0
VERTEX
8
Layer_1
6
CONTINUOUS
39
0.5
62
7
10
69.99113646363331
20
72.085543772466636
0
VERTEX
8
Layer_1
6
CONTINUOUS
39
0.5
62
7
10
72.177569604165512
20
76.456383259882145
0
VERTEX
8
Layer_1
6
CONTINUOUS
39
0.5
62
7
10
73.402973177215316
20
75.843397358579452
0
VERTEX
8
Layer_1
6
CONTINUOUS
39
0.5
62
7
10
71.216540036683128
20
71.472557871164014
0
VERTEX
8
Layer_1
6
CONTINUOUS
39
0.5
62
7
10
69.99113646363331
20
72.085543772466636
0
SEQEND
0
POLYLINE
8
Layer_1
6
CONTINUOUS
39
0.5
62
7
66
1
10
0
20
0
70
129
40
0.5
41
0.5
0
VERTEX
8
Layer_1
6
CONTINUOUS
39
0.5
62
7
10
77.381810155269974
20
74.535907871313839
0
VERTEX
8
Layer_1
6
CONTINUOUS
39
0.5
62
7
10
79.568243295802162
20
78.906747358729248
0
VERTEX
8
Layer_1
6
CONTINUOUS
39
0.5
62
7
10
80.793646868851923
20
78.293761457426626
0
VERTEX
8
Layer_1
6
CONTINUOUS
39
0.5
62
7
10
78.607213728319778
20
73.922921970011245
0
VERTEX
8
Layer_1
6
CONTINUOUS
39
0.5
62
7
10
77.381810155269974
20
74.535907871313839
0
SEQEND
0
POLYLINE
8
Layer_1
6
CONTINUOUS
39
0.5
62
7
66
1
10
0
20
0
70
129
40
0.5
41
0.5
0
VERTEX
8
Layer_1
6
CONTINUOUS
39
0.5
62
7
10
84.435570640651221
20
76.603272775072412
0
VERTEX
8
Layer_1
6
CONTINUOUS
39
0.5
62
7
10
86.622003781183395
20
80.974112262487836
0
VERTEX
8
Layer_1
6
CONTINUOUS
39
0.5
62
7
10
87.847407354233212
20
80.361126361185185
0
VERTEX
8
Layer_1
6
CONTINUOUS
39
0.5
62
7
10
85.660974213701095
20
75.990286873769762
0
VERTEX
8
Layer_1
6
CONTINUOUS
39
0.5
62
7
10
84.435570640651221
20
76.603272775072412
0
SEQEND
0
POLYLINE
8
Layer_1
6
CONTINUOUS
39
0.5
62
7
66
1
10
0
20
0
70
129
40
0.5
41
0.5
0
VERTEX
8
Layer_1
6
CONTINUOUS
39
0.5
62
7
10
91.686159894746467
20
78.917105217157925
0
VERTEX
8
Layer_1
6
CONTINUOUS
39
0.5
62
7
10
93.872593035278626
20
83.287944704573334
0
VERTEX
8
Layer_1
6
CONTINUOUS
39
0.5
62
7
10
95.09799660832843
20
82.674958803270684
0
VERTEX
8
Layer_1
6
CONTINUOUS
39
0.5
62
7
10
92.911563467796284
20
78.304119315855218
0
VERTEX
8
Layer_1
6
CONTINUOUS
39
0.5
62
7
10
91.686159894746467
20
78.917105217157925
0
SEQEND
0
POLYLINE
8
Layer_1
6
CONTINUOUS
39
0.5
62
7
66
1
10
0
20
0
70
129
40
0.5
41
0.5
0
VERTEX
8
Layer_1
6
CONTINUOUS
39
0.5
62
7
10
98.520048616997173
20
81.097958783261475
0
VERTEX
8
Layer_1
6
CONTINUOUS
39
0.5
62
7
10
100.70648175752926
20
85.468798270676913
0
VERTEX
8
Layer_1
6
CONTINUOUS
39
0.5
62
7
10
101.93188533057912
20
84.855812369374263
0
VERTEX
8
Layer_1
6
CONTINUOUS
39
0.5
62
7
10
99.745452190046933
20
80.484972881958839
0
VERTEX
8
Layer_1
6
CONTINUOUS
39
0.5
62
7
10
98.520048616997173
20
81.097958783261475
0
SEQEND
0
LINE
8
Layer_1
6
CONTINUOUS
39
0.5
62
7
10
91.556056502371106
20
139.40328544592569
11
170.36609453691804
21
164.55340999109029
0
LINE
8
Layer_1
6
CONTINUOUS
39
0.5
62
7
10
89.613627465813963
20
143.63140834682915
11
168.92039540204496
21
168.94005100978956
0
LINE
8
Layer_1
6
CONTINUOUS
39
0.5
62
7
10
90.07158979709881
20
141.41751492680848
11
170.51316629731338
21
167.08830151750831
0
LINE
8
Layer_1
6
CONTINUOUS
39
0.5
62
7
10
159.36432715068091
20
209.68282458364646
11
64.529446374953039
21
209.04544227651013
0
LINE
8
Layer_1
6
CONTINUOUS
39
0.5
62
7
10
65.225929888221359
20
277.77153593285311
11
163.36804948200754
21
277.65788815233896
0
LINE
8
Layer_1
6
CONTINUOUS
39
0.5
62
7
10
162.76826674485733
20
280.69998466041943
11
162.91040899695702
21
291.76704369072058
0
LINE
8
Layer_1
6
CONTINUOUS
39
0.5
62
7
10
162.91040899695702
20
291.76704369072058
11
203.86461921987512
21
291.71541988782172
0
LINE
8
Layer_1
6
CONTINUOUS
39
0.5
62
7
10
204.50282816621836
20
279.84770362306341
11
204.48785273727503
21
280.12617690780934
0
LINE
8
Layer_1
6
CONTINUOUS
39
0.5
62
7
10
204
20
289.19796742114983
11
203.86461921987512
21
291.71541988782172
0
LINE
8
Layer_1
6
CONTINUOUS
39
0.5
62
7
10
162.33082825768781
20
209.70661421239853
11
163.92170347097399
21
198.14291601261178
0
LINE
8
Layer_1
6
CONTINUOUS
39
0.5
62
7
10
163.76969443848816
20
198.61924914608315
11
204
21
198.40504638936272
0
LINE
8
Layer_1
6
CONTINUOUS
39
0.5
62
7
10
206.44016985984865
20
210.81625993475041
11
206.46736138242048
21
211.19538677037136
0
LINE
8
Layer_1
6
CONTINUOUS
39
0.5
62
7
10
64.725437869033726
20
280.3779504604023
11
68.80994818537674
21
290.60374018421805
0
LINE
8
Layer_1
6
CONTINUOUS
39
0.5
62
7
10
160.27348669131621
20
209.57491121592707
11
159.91026794402848
21
279.78793046550504
0
LINE
8
Layer_1
6
CONTINUOUS
62
7
10
204
20
292
11
204
21
198
0
LINE
8
Layer_1
6
CONTINUOUS
62
7
10
162
20
213
11
210
21
213
0
LINE
8
Layer_1
6
CONTINUOUS
62
7
10
162
20
278
11
213
21
278
0
LINE
8
Layer_1
6
CONTINUOUS
62
7
10
162
20
281
11
210
21
281
0
LINE
8
Layer_1
6
CONTINUOUS
62
7
10
159
20
210
11
208
21
210
0
ENDSEC
0
EOF
